<?xml version="1.0" encoding="utf-8"?>
<!-- Generator: Adobe Illustrator 11.0, SVG Export Plug-In  -->
<!DOCTYPE svg PUBLIC "-//W3C//DTD SVG 1.0//EN"    "http://www.w3.org/TR/2001/REC-SVG-20010904/DTD/svg10.dtd" [
	<!ENTITY ns_flows "http://ns.adobe.com/Flows/1.0/">
	<!ENTITY ns_svg "http://www.w3.org/2000/svg">
	<!ENTITY ns_xlink "http://www.w3.org/1999/xlink">
]>
<svg  xmlns="&ns_svg;" xmlns:xlink="&ns_xlink;" xmlns:a="http://ns.adobe.com/AdobeSVGViewerExtensions/3.0/"
	 width="16" height="16" viewBox="-0.1 -0.1 16 16" xml:space="preserve">
	<defs>
	</defs>
	<g>
		
			<radialGradient id="XMLID_1_" cx="-251.9644" cy="388.2554" r="17.661" fx="-251.9644" fy="388.2554" gradientTransform="matrix(0.5043 0.5127 0.5043 -0.5127 -60.8403 344.9767)" gradientUnits="userSpaceOnUse">
			<stop  offset="0" style="stop-color:#FFFFFF"/>
			<stop  offset="1" style="stop-color:#E8B27C"/>
			<a:midPointStop  offset="0" style="stop-color:#FFFFFF"/>
			<a:midPointStop  offset="0.5" style="stop-color:#FFFFFF"/>
			<a:midPointStop  offset="1" style="stop-color:#E8B27C"/>
		</radialGradient>
		<polygon display="none" fill="url(#XMLID_1_)" stroke="#000000" stroke-width="0.55" points="7.8,15.4 0.5,7.9 7.8,0.4 15.2,7.9 
			"/>
		
			<radialGradient id="XMLID_2_" cx="10.7676" cy="4.936" r="5.9612" fx="10.7676" fy="4.936" gradientTransform="matrix(1.0096 0 0 0.9931 -7.513782e-002 0.1065)" gradientUnits="userSpaceOnUse">
			<stop  offset="0" style="stop-color:#FFFFFF"/>
			<stop  offset="1" style="stop-color:#F5F683"/>
			<a:midPointStop  offset="0" style="stop-color:#FFFFFF"/>
			<a:midPointStop  offset="0.5" style="stop-color:#FFFFFF"/>
			<a:midPointStop  offset="1" style="stop-color:#F5F683"/>
		</radialGradient>
		<circle display="none" fill="url(#XMLID_2_)" stroke="#000000" stroke-width="0.55" cx="7.8" cy="7.9" r="2.5"/> 
		<radialGradient id="XMLID_3_" cx="16.7295" cy="-1.0088" r="18.22" fx="16.7295" fy="-1.0088" gradientUnits="userSpaceOnUse">
			<stop  offset="0" style="stop-color:#FFFFFF"/>
			<stop  offset="1" style="stop-color:#F5F683"/>
			<a:midPointStop  offset="0" style="stop-color:#FFFFFF"/>
			<a:midPointStop  offset="0.5" style="stop-color:#FFFFFF"/>
			<a:midPointStop  offset="1" style="stop-color:#F5F683"/>
		</radialGradient>
		<circle fill="url(#XMLID_3_)" stroke="#000000" stroke-width="0.55" cx="7.8" cy="7.8" r="7.5"/> 
		<path d="M10.1,11.2c-0.3,0.2-1,0.3-1.9,0.3c-2,0-3.5-1.3-3.5-3.6c0-2.2,1.5-3.7,3.7-3.7c0.9,0,1.4,0.2,1.7,0.3L9.9,5.3
			C9.5,5.2,9.1,5,8.5,5C6.8,5,5.7,6.1,5.7,8c0,1.7,1,2.8,2.7,2.8c0.6,0,1.1-0.1,1.5-0.3L10.1,11.2z"/>
		<radialGradient id="XMLID_4_" cx="7.5674" cy="3.522" r="1.6641" fx="7.5674" fy="3.522" gradientUnits="userSpaceOnUse">
			<stop  offset="0" style="stop-color:#FFFFFF"/>
			<stop  offset="1" style="stop-color:#F5F683"/>
			<a:midPointStop  offset="0" style="stop-color:#FFFFFF"/>
			<a:midPointStop  offset="0.5" style="stop-color:#FFFFFF"/>
			<a:midPointStop  offset="1" style="stop-color:#F5F683"/>
		</radialGradient>
		
			<rect x="5.9" y="1.9" display="none" fill="url(#XMLID_4_)" stroke="#4D4D4D" stroke-width="0.3" stroke-miterlimit="5" width="3.3" height="3.3"/> 
		
			<line display="none" fill="none" stroke="#4D4D4D" stroke-width="0.3" stroke-miterlimit="5" x1="0.5" y1="7.9" x2="15.2" y2="7.9"/>
		
			<line display="none" fill="none" stroke="#4D4D4D" stroke-width="0.3" stroke-miterlimit="5" x1="7.6" y1="5.2" x2="7.6" y2="7.9"/>
		
			<radialGradient id="XMLID_5_" cx="4.3872" cy="10.6714" r="1.6638" fx="4.3872" fy="10.6714" gradientTransform="matrix(-1 0 0 -1 15.6426 23.0264)" gradientUnits="userSpaceOnUse">
			<stop  offset="0" style="stop-color:#FFFFFF"/>
			<stop  offset="1" style="stop-color:#F5F683"/>
			<a:midPointStop  offset="0" style="stop-color:#FFFFFF"/>
			<a:midPointStop  offset="0.5" style="stop-color:#FFFFFF"/>
			<a:midPointStop  offset="1" style="stop-color:#F5F683"/>
		</radialGradient>
		
			<rect x="9.6" y="10.7" display="none" fill="url(#XMLID_5_)" stroke="#4D4D4D" stroke-width="0.3" stroke-miterlimit="5" width="3.3" height="3.3"/> 
		
			<line display="none" fill="none" stroke="#4D4D4D" stroke-width="0.3" stroke-miterlimit="5" x1="11.3" y1="10.7" x2="11.3" y2="7.9"/>
		
			<radialGradient id="XMLID_6_" cx="11.6348" cy="10.6714" r="1.6636" fx="11.6348" fy="10.6714" gradientTransform="matrix(-1 0 0 -1 15.6426 23.0264)" gradientUnits="userSpaceOnUse">
			<stop  offset="0" style="stop-color:#FFFFFF"/>
			<stop  offset="1" style="stop-color:#F5F683"/>
			<a:midPointStop  offset="0" style="stop-color:#FFFFFF"/>
			<a:midPointStop  offset="0.5" style="stop-color:#FFFFFF"/>
			<a:midPointStop  offset="1" style="stop-color:#F5F683"/>
		</radialGradient>
		
			<rect x="2.3" y="10.7" display="none" fill="url(#XMLID_6_)" stroke="#4D4D4D" stroke-width="0.3" stroke-miterlimit="5" width="3.3" height="3.3"/> 
		<line display="none" fill="none" stroke="#4D4D4D" stroke-width="0.3" stroke-miterlimit="5" x1="4" y1="10.7" x2="4" y2="7.9"/>
		<linearGradient id="XMLID_7_" gradientUnits="userSpaceOnUse" x1="2.4243" y1="7.2534" x2="13.2471" y2="7.2534">
			<stop  offset="0" style="stop-color:#BABABA"/>
			<stop  offset="1" style="stop-color:#FFFFFF"/>
			<a:midPointStop  offset="0" style="stop-color:#BABABA"/>
			<a:midPointStop  offset="0.5" style="stop-color:#BABABA"/>
			<a:midPointStop  offset="1" style="stop-color:#FFFFFF"/>
		</linearGradient>
		
			<circle display="none" fill="url(#XMLID_7_)" stroke="#4D4D4D" stroke-width="0.3" stroke-miterlimit="5" cx="7.8" cy="7.3" r="5.4"/> 
		<radialGradient id="XMLID_8_" cx="7.835" cy="12.6655" r="1.7241" fx="7.835" fy="12.6655" gradientUnits="userSpaceOnUse">
			<stop  offset="0" style="stop-color:#FFFFFF"/>
			<stop  offset="1" style="stop-color:#F5F683"/>
			<a:midPointStop  offset="0" style="stop-color:#FFFFFF"/>
			<a:midPointStop  offset="0.5" style="stop-color:#FFFFFF"/>
			<a:midPointStop  offset="1" style="stop-color:#F5F683"/>
		</radialGradient>
		
			<rect x="6.1" y="10.9" display="none" fill="url(#XMLID_8_)" stroke="#4D4D4D" stroke-width="0.3" stroke-miterlimit="5" width="3.4" height="3.4"/> 
		
			<line display="none" fill="none" stroke="#4D4D4D" stroke-width="0.3" stroke-miterlimit="5" x1="0.5" y1="7.2" x2="3.9" y2="7.2"/>
		
			<line display="none" fill="none" stroke="#4D4D4D" stroke-width="0.3" stroke-miterlimit="5" x1="6.1" y1="7.2" x2="9.5" y2="7.2"/>
		
			<line display="none" fill="none" stroke="#4D4D4D" stroke-width="0.3" stroke-miterlimit="5" x1="11.6" y1="7.3" x2="15" y2="7.3"/>
		<radialGradient id="XMLID_9_" cx="7.8223" cy="7.812" r="4.1021" fx="7.8223" fy="7.812" gradientUnits="userSpaceOnUse">
			<stop  offset="0" style="stop-color:#FFFFFF"/>
			<stop  offset="1" style="stop-color:#E8B27C"/>
			<a:midPointStop  offset="0" style="stop-color:#FFFFFF"/>
			<a:midPointStop  offset="0.5" style="stop-color:#FFFFFF"/>
			<a:midPointStop  offset="1" style="stop-color:#E8B27C"/>
		</radialGradient>
		
			<circle display="none" fill="url(#XMLID_9_)" stroke="#4D4D4D" stroke-width="0.3" stroke-miterlimit="5" cx="7.8" cy="7.8" r="4.1"/> 
		
			<line display="none" fill="none" stroke="#4D4D4D" stroke-width="0.3" stroke-miterlimit="5" x1="11.9" y1="7.8" x2="14.9" y2="7.8"/>
		
			<line display="none" fill="none" stroke="#4D4D4D" stroke-width="0.3" stroke-miterlimit="5" x1="14.9" y1="12.2" x2="14.9" y2="3.3"/>
		
			<line display="none" fill="none" stroke="#4D4D4D" stroke-width="0.3" stroke-miterlimit="5" x1="3.7" y1="7.8" x2="0.8" y2="7.8"/>
		
			<line display="none" fill="none" stroke="#4D4D4D" stroke-width="0.3" stroke-miterlimit="5" x1="0.8" y1="3.5" x2="0.8" y2="12.3"/>
		
			<line display="none" fill="none" stroke="#4D4D4D" stroke-width="0.3" stroke-miterlimit="5" x1="1.3" y1="14.3" x2="14.3" y2="1.4"/>
		<radialGradient id="XMLID_10_" cx="7.8159" cy="7.7983" r="1.6072" fx="7.8159" fy="7.7983" gradientUnits="userSpaceOnUse">
			<stop  offset="0" style="stop-color:#FFFFFF"/>
			<stop  offset="1" style="stop-color:#F5F683"/>
			<a:midPointStop  offset="0" style="stop-color:#FFFFFF"/>
			<a:midPointStop  offset="0.5" style="stop-color:#FFFFFF"/>
			<a:midPointStop  offset="1" style="stop-color:#F5F683"/>
		</radialGradient>
		
			<rect x="6.2" y="6.2" display="none" fill="url(#XMLID_10_)" stroke="#4D4D4D" stroke-width="0.6" stroke-miterlimit="5" width="3.2" height="3.2"/> 
		<path display="none" fill="#4D4D4D" d="M0.9,4.3V0.9h0.4v1.4H3V0.9h0.4v3.3H3V2.7H1.3v1.6H0.9z"/>
		<path display="none" fill="#4D4D4D" d="M4.8,4.3L3.9,0.9h0.5l0.5,2.2C4.9,3.4,5,3.6,5,3.8c0.1-0.4,0.1-0.6,0.2-0.6l0.6-2.2h0.5
			l0.5,1.7C6.9,3,7,3.4,7,3.8c0-0.2,0.1-0.4,0.2-0.7l0.5-2.1h0.4L7.3,4.3H6.8L6.1,1.7C6.1,1.5,6,1.4,6,1.3C6,1.5,6,1.6,5.9,1.7
			L5.2,4.3H4.8z"/>
		<path display="none" fill="#4D4D4D" d="M7.7,13.9l0.4,0c0,0.2,0.1,0.3,0.1,0.4c0.1,0.1,0.2,0.2,0.3,0.3c0.2,0.1,0.3,0.1,0.5,0.1
			c0.2,0,0.3,0,0.4-0.1c0.1-0.1,0.2-0.1,0.3-0.2s0.1-0.2,0.1-0.3c0-0.1,0-0.2-0.1-0.3c-0.1-0.1-0.2-0.1-0.3-0.2
			c-0.1,0-0.3-0.1-0.6-0.2c-0.3-0.1-0.5-0.1-0.6-0.2C8.2,13.1,8,13,8,12.9c-0.1-0.1-0.1-0.3-0.1-0.4c0-0.2,0-0.3,0.1-0.5
			c0.1-0.1,0.2-0.3,0.4-0.3s0.4-0.1,0.6-0.1c0.2,0,0.5,0,0.7,0.1c0.2,0.1,0.3,0.2,0.4,0.3c0.1,0.2,0.2,0.3,0.2,0.5l-0.4,0
			c0-0.2-0.1-0.4-0.2-0.5C9.5,12,9.3,11.9,9,11.9c-0.3,0-0.5,0-0.6,0.1c-0.1,0.1-0.2,0.2-0.2,0.4c0,0.1,0,0.2,0.1,0.3
			c0.1,0.1,0.3,0.2,0.7,0.2c0.4,0.1,0.6,0.2,0.7,0.2c0.2,0.1,0.3,0.2,0.4,0.3c0.1,0.1,0.1,0.3,0.1,0.5c0,0.2-0.1,0.3-0.2,0.5
			c-0.1,0.2-0.2,0.3-0.4,0.4C9.6,14.9,9.4,15,9.1,15c-0.3,0-0.6,0-0.8-0.1c-0.2-0.1-0.4-0.2-0.5-0.4S7.7,14.1,7.7,13.9z"/>
		<path display="none" fill="#4D4D4D" d="M11.5,14.9l-0.9-3.3h0.5l0.5,2.2c0.1,0.2,0.1,0.5,0.1,0.7c0.1-0.4,0.1-0.6,0.2-0.6l0.6-2.2
			h0.5l0.5,1.7c0.1,0.4,0.2,0.8,0.3,1.2c0-0.2,0.1-0.4,0.2-0.7l0.5-2.1H15L14,14.9h-0.4l-0.7-2.5c-0.1-0.2-0.1-0.3-0.1-0.4
			c0,0.2-0.1,0.3-0.1,0.4L12,14.9H11.5z"/>
		<radialGradient id="XMLID_11_" cx="15.5439" cy="0.166" r="15.7994" fx="15.5439" fy="0.166" gradientUnits="userSpaceOnUse">
			<stop  offset="0" style="stop-color:#FFFFFF"/>
			<stop  offset="0.2852" style="stop-color:#FBFCFB"/>
			<stop  offset="0.5718" style="stop-color:#EFF4F0"/>
			<stop  offset="0.8583" style="stop-color:#DBE7DD"/>
			<stop  offset="1" style="stop-color:#CEDFD1"/>
			<a:midPointStop  offset="0" style="stop-color:#FFFFFF"/>
			<a:midPointStop  offset="0.7062" style="stop-color:#FFFFFF"/>
			<a:midPointStop  offset="1" style="stop-color:#CEDFD1"/>
		</radialGradient>
		<circle display="none" fill="url(#XMLID_11_)" stroke="#4D4D4D" stroke-width="0.3" cx="7.8" cy="7.8" r="6.5"/> 
		<path display="none" fill="#4D4D4D" d="M8,5.6C7.7,5.6,7.5,5.3,7.5,5c0-0.3,0.2-0.5,0.5-0.5S8.5,4.8,8.5,5C8.5,5.3,8.3,5.6,8,5.6
			L8,5.6z M7.6,10.7V6.4h0.8v4.4H7.6z"/>
		<circle display="none" fill="url(#XMLID_11_)" stroke="#4D4D4D" stroke-width="0.3" cx="7.8" cy="7.8" r="6.5"/> 
		<path display="none" fill="#4D4D4D" d="M8,5.6C7.7,5.6,7.5,5.3,7.5,5S7.7,4.5,8,4.5S8.5,4.8,8.5,5S8.3,5.6,8,5.6L8,5.6z M7.6,10.7
			V6.4h0.8v4.4H7.6z"/>
		
			<line display="none" fill="none" stroke="#4D4D4D" stroke-width="0.3" stroke-miterlimit="10" x1="9.4" y1="7.8" x2="13.8" y2="7.8"/>
		<polyline display="none" fill="none" stroke="#4D4D4D" stroke-width="0.3" stroke-miterlimit="5" points="12,5.8 13.8,7.8 12,10 
			"/>
		
			<line display="none" fill="none" stroke="#4D4D4D" stroke-width="0.3" stroke-miterlimit="10" x1="6.2" y1="7.8" x2="1.8" y2="7.8"/>
		<polyline display="none" fill="none" stroke="#4D4D4D" stroke-width="0.3" stroke-miterlimit="5" points="3.6,9.8 1.8,7.8 
			3.6,5.7 "/>
		<linearGradient id="XMLID_13_" gradientUnits="userSpaceOnUse" x1="2.5391" y1="5.5112" x2="12.6914" y2="5.5112">
			<stop  offset="0" style="stop-color:#BABABA"/>
			<stop  offset="1" style="stop-color:#FFFFFF"/>
			<a:midPointStop  offset="0" style="stop-color:#BABABA"/>
			<a:midPointStop  offset="0.5" style="stop-color:#BABABA"/>
			<a:midPointStop  offset="1" style="stop-color:#FFFFFF"/>
		</linearGradient>
		<path display="none" fill="url(#XMLID_13_)" stroke="#4D4D4D" stroke-width="0.3" stroke-miterlimit="5" d="M2.5,8
			C2.5,5.2,4.8,3,7.6,3c2.8,0,5.1,2.3,5.1,5.1"/>
		<radialGradient id="XMLID_14_" cx="7.6147" cy="2.9731" r="1.6177" fx="7.6147" fy="2.9731" gradientUnits="userSpaceOnUse">
			<stop  offset="0" style="stop-color:#FFFFFF"/>
			<stop  offset="1" style="stop-color:#F5F683"/>
			<a:midPointStop  offset="0" style="stop-color:#FFFFFF"/>
			<a:midPointStop  offset="0.5" style="stop-color:#FFFFFF"/>
			<a:midPointStop  offset="1" style="stop-color:#F5F683"/>
		</radialGradient>
		
			<rect x="6" y="1.4" display="none" fill="url(#XMLID_14_)" stroke="#4D4D4D" stroke-width="0.3" stroke-miterlimit="5" width="3.2" height="3.2"/> 
		<line display="none" fill="none" stroke="#4D4D4D" stroke-width="0.3" stroke-miterlimit="5" x1="0.7" y1="8" x2="15.1" y2="8"/>
		<path display="none" fill="#4D4D4D" d="M3.5,12.4L2.7,9.3h0.4l0.5,2c0.1,0.2,0.1,0.4,0.1,0.6c0.1-0.3,0.1-0.5,0.1-0.6l0.6-2.1h0.5
			l0.4,1.6c0.1,0.4,0.2,0.8,0.3,1.1c0-0.2,0.1-0.4,0.2-0.7l0.5-2h0.4l-0.9,3.1H5.4L4.8,10C4.7,9.8,4.7,9.7,4.7,9.6
			c0,0.1-0.1,0.3-0.1,0.4l-0.7,2.4H3.5z"/>
		<path display="none" fill="#4D4D4D" d="M6.6,12.4l1.2-3.1h0.5l1.3,3.1H9l-0.4-0.9H7.3L7,12.4H6.6z M7.5,11.1h1.1l-0.3-0.9
			C8.1,10,8,9.8,8,9.6c0,0.2-0.1,0.4-0.2,0.6L7.5,11.1z"/>
		<path display="none" fill="#4D4D4D" d="M9.8,12.4V9.3h0.4l1.6,2.5V9.3h0.4v3.1h-0.4l-1.6-2.5v2.5H9.8z"/>
		<path display="none" fill="#4D4D4D" d="M3.8,11.8V8.9h0.6l0.7,2c0.1,0.2,0.1,0.3,0.1,0.4c0-0.1,0.1-0.3,0.2-0.5l0.7-2h0.5v2.9H6.1
			V9.4l-0.8,2.4H4.9L4.1,9.4v2.4H3.8z"/>
		<path display="none" fill="#4D4D4D" d="M6.8,11.8l1.1-2.9h0.4l1.2,2.9H9l-0.3-0.9H7.5l-0.3,0.9H6.8z M7.6,10.6h1L8.3,9.8
			C8.2,9.6,8.1,9.4,8.1,9.2C8,9.4,8,9.6,7.9,9.8L7.6,10.6z"/>
		<path display="none" fill="#4D4D4D" d="M9.8,11.8V8.9h0.4l1.5,2.3V8.9H12v2.9h-0.4l-1.5-2.3v2.3H9.8z"/>
		<path display="none" fill="#4D4D4D" d="M4.3,11.8V8.9h0.4v2.5H6v0.3H4.3z"/>
		<path display="none" fill="#4D4D4D" d="M6.2,11.8l1.1-2.9h0.4l1.2,2.9H8.4l-0.3-0.9H6.9l-0.3,0.9H6.2z M7,10.6h1L7.7,9.8
			C7.6,9.6,7.5,9.4,7.5,9.2c0,0.2-0.1,0.4-0.2,0.5L7,10.6z"/>
		<path display="none" fill="#4D4D4D" d="M9.2,11.8V8.9h0.4l1.5,2.3V8.9h0.4v2.9H11L9.5,9.5v2.3H9.2z"/>
		
			<linearGradient id="XMLID_15_" gradientUnits="userSpaceOnUse" x1="1.0889" y1="7.5972" x2="14.9629" y2="7.5972" gradientTransform="matrix(-0.5 -0.5 0.5 -0.5 8.1506 15.7688)">
			<stop  offset="0" style="stop-color:#BABABA"/>
			<stop  offset="1" style="stop-color:#FFFFFF"/>
			<a:midPointStop  offset="0" style="stop-color:#BABABA"/>
			<a:midPointStop  offset="0.5" style="stop-color:#BABABA"/>
			<a:midPointStop  offset="1" style="stop-color:#FFFFFF"/>
		</linearGradient>
		<polygon display="none" fill="url(#XMLID_15_)" stroke="#4D4D4D" stroke-width="0.3" points="7.9,1 14.9,8 7.9,14.9 1,8 "/>
		
			<radialGradient id="XMLID_16_" cx="5.6475" cy="9.6646" r="2.939" fx="5.6475" fy="9.6646" gradientTransform="matrix(1.9388 0 0 1.7601 -3.6415 -8.6888)" gradientUnits="userSpaceOnUse">
			<stop  offset="0" style="stop-color:#FFFFFF"/>
			<stop  offset="1" style="stop-color:#F5F683"/>
			<a:midPointStop  offset="0" style="stop-color:#FFFFFF"/>
			<a:midPointStop  offset="0.5" style="stop-color:#FFFFFF"/>
			<a:midPointStop  offset="1" style="stop-color:#F5F683"/>
		</radialGradient>
		<rect x="1.6" y="3.1" display="none" fill="url(#XMLID_16_)" stroke="#4D4D4D" stroke-width="0.3" width="11.4" height="10.3"/> 
		<polyline display="none" fill="none" stroke="#4D4D4D" stroke-width="0.6" points="3.3,6.9 7,12.1 14.8,1.6 "/>
		
			<radialGradient id="XMLID_17_" cx="-289.4058" cy="373.1265" r="1.84" fx="-289.4058" fy="373.1265" gradientTransform="matrix(-0.7071 0.7071 0.7071 0.7071 -459.6236 -52.1792)" gradientUnits="userSpaceOnUse">
			<stop  offset="0" style="stop-color:#FFFFFF"/>
			<stop  offset="1" style="stop-color:#E5A76A"/>
			<a:midPointStop  offset="0" style="stop-color:#FFFFFF"/>
			<a:midPointStop  offset="0.5" style="stop-color:#FFFFFF"/>
			<a:midPointStop  offset="1" style="stop-color:#E5A76A"/>
		</radialGradient>
		<path display="none" fill="url(#XMLID_17_)" stroke="#4D4D4D" stroke-width="0.6" stroke-miterlimit="5" d="M10.7,5.2
			C9.5,6.4,8.2,7.7,7,8.9"/>
		<polyline display="none" fill="none" stroke="#4D4D4D" stroke-width="0.6" stroke-miterlimit="5" points="7.5,5.3 10.7,5.2 
			10.7,8.5 "/>
		<radialGradient id="XMLID_18_" cx="9.6523" cy="3.8647" r="3.2637" fx="9.6523" fy="3.8647" gradientUnits="userSpaceOnUse">
			<stop  offset="0" style="stop-color:#FFFFFF"/>
			<stop  offset="1" style="stop-color:#F5F683"/>
			<a:midPointStop  offset="0" style="stop-color:#FFFFFF"/>
			<a:midPointStop  offset="0.5" style="stop-color:#FFFFFF"/>
			<a:midPointStop  offset="1" style="stop-color:#F5F683"/>
		</radialGradient>
		<polygon display="none" fill="url(#XMLID_18_)" stroke="#4D4D4D" stroke-width="0.3" points="10.9,3.9 13.3,6.6 6,6.6 6,1.1 
			13.3,1.1 "/>
		<line display="none" fill="none" stroke="#4D4D4D" stroke-width="0.3" x1="6" y1="1.1" x2="6" y2="14.6"/>
		<line display="none" fill="none" stroke="#4D4D4D" stroke-width="0.6" x1="3.6" y1="14.6" x2="8.3" y2="14.6"/>
		<radialGradient id="XMLID_19_" cx="7.8652" cy="3.3213" r="4.2021" fx="7.8652" fy="3.3213" gradientUnits="userSpaceOnUse">
			<stop  offset="0" style="stop-color:#FFFFFF"/>
			<stop  offset="1" style="stop-color:#F5F683"/>
			<a:midPointStop  offset="0" style="stop-color:#FFFFFF"/>
			<a:midPointStop  offset="0.5" style="stop-color:#FFFFFF"/>
			<a:midPointStop  offset="1" style="stop-color:#F5F683"/>
		</radialGradient>
		<polyline display="none" fill="url(#XMLID_19_)" stroke="#4D4D4D" stroke-width="0.3" points="13.2,5.9 7.9,0.7 2.6,6 "/>
		<polyline display="none" fill="none" stroke="#4D4D4D" stroke-width="0.3" stroke-miterlimit="5" points="13.1,2.8 13.2,5.9 
			10,5.9 "/>
		<radialGradient id="XMLID_20_" cx="7.9219" cy="12.1646" r="4.2021" fx="7.9219" fy="12.1646" gradientUnits="userSpaceOnUse">
			<stop  offset="0" style="stop-color:#FFFFFF"/>
			<stop  offset="1" style="stop-color:#F5F683"/>
			<a:midPointStop  offset="0" style="stop-color:#FFFFFF"/>
			<a:midPointStop  offset="0.5" style="stop-color:#FFFFFF"/>
			<a:midPointStop  offset="1" style="stop-color:#F5F683"/>
		</radialGradient>
		<polyline display="none" fill="url(#XMLID_20_)" stroke="#4D4D4D" stroke-width="0.3" points="2.6,9.6 7.9,14.8 13.2,9.5 "/>
		<polyline display="none" fill="none" stroke="#4D4D4D" stroke-width="0.3" stroke-miterlimit="5" points="2.7,12.7 2.6,9.6 
			5.8,9.6 "/>
		<path display="none" fill="url(#XMLID_17_)" stroke="#4D4D4D" stroke-width="0.6" stroke-miterlimit="5" d="M10.7,5.2
			C9.5,6.4,8.2,7.7,7,8.9"/>
		<polyline display="none" fill="none" stroke="#4D4D4D" stroke-width="0.6" stroke-miterlimit="5" points="7.5,5.3 10.7,5.2 
			10.7,8.5 "/>
		<polygon display="none" fill="#003B82" points="6.4,10.5 4.9,7.9 6.4,5.3 9.3,5.3 10.8,7.9 9.3,10.5 "/>
		
			<line display="none" fill="none" stroke="#4D4D4D" stroke-width="0.3" stroke-miterlimit="10" x1="15.1" y1="7.9" x2="11.4" y2="7.9"/>
		<polyline display="none" fill="none" stroke="#4D4D4D" stroke-width="0.3" stroke-miterlimit="5" points="14.1,10.5 11.4,7.9 
			14.1,5.1 "/>
		
			<line display="none" fill="none" stroke="#4D4D4D" stroke-width="0.3" stroke-miterlimit="10" x1="0.7" y1="7.9" x2="4.4" y2="7.9"/>
		<polyline display="none" fill="none" stroke="#4D4D4D" stroke-width="0.3" stroke-miterlimit="5" points="1.6,5.3 4.4,7.9 
			1.6,10.7 "/>
		<radialGradient id="XMLID_22_" cx="4.3657" cy="9.8774" r="2.8775" fx="4.3657" fy="9.8774" gradientUnits="userSpaceOnUse">
			<stop  offset="0" style="stop-color:#FFFFFF"/>
			<stop  offset="0.2852" style="stop-color:#FBFCFB"/>
			<stop  offset="0.5718" style="stop-color:#EFF4F0"/>
			<stop  offset="0.8583" style="stop-color:#DBE7DD"/>
			<stop  offset="1" style="stop-color:#CEDFD1"/>
			<a:midPointStop  offset="0" style="stop-color:#FFFFFF"/>
			<a:midPointStop  offset="0.7062" style="stop-color:#FFFFFF"/>
			<a:midPointStop  offset="1" style="stop-color:#CEDFD1"/>
		</radialGradient>
		<path display="none" fill="url(#XMLID_22_)" stroke="#4D4D4D" stroke-width="0.3" d="M7.9,9.9c0,1.1-0.9,2-2,2h-3
			c-1.1,0-2-0.9-2-2l0,0c0-1.1,0.9-2,2-2h3C7,7.8,7.9,8.8,7.9,9.9L7.9,9.9z"/>
		<radialGradient id="XMLID_23_" cx="11.4219" cy="9.8774" r="2.8772" fx="11.4219" fy="9.8774" gradientUnits="userSpaceOnUse">
			<stop  offset="0" style="stop-color:#FFFFFF"/>
			<stop  offset="0.2852" style="stop-color:#FBFCFB"/>
			<stop  offset="0.5718" style="stop-color:#EFF4F0"/>
			<stop  offset="0.8583" style="stop-color:#DBE7DD"/>
			<stop  offset="1" style="stop-color:#CEDFD1"/>
			<a:midPointStop  offset="0" style="stop-color:#FFFFFF"/>
			<a:midPointStop  offset="0.7062" style="stop-color:#FFFFFF"/>
			<a:midPointStop  offset="1" style="stop-color:#CEDFD1"/>
		</radialGradient>
		<path display="none" fill="url(#XMLID_23_)" stroke="#4D4D4D" stroke-width="0.3" d="M14.9,9.9c0,1.1-0.9,2-2,2h-3
			c-1.1,0-2-0.9-2-2l0,0c0-1.1,0.9-2,2-2h3C14,7.8,14.9,8.8,14.9,9.9L14.9,9.9z"/>
		<radialGradient id="XMLID_24_" cx="7.7168" cy="5.8208" r="2.8778" fx="7.7168" fy="5.8208" gradientUnits="userSpaceOnUse">
			<stop  offset="0" style="stop-color:#FFFFFF"/>
			<stop  offset="1" style="stop-color:#F5F683"/>
			<a:midPointStop  offset="0" style="stop-color:#FFFFFF"/>
			<a:midPointStop  offset="0.5" style="stop-color:#FFFFFF"/>
			<a:midPointStop  offset="1" style="stop-color:#F5F683"/>
		</radialGradient>
		<path display="none" fill="url(#XMLID_24_)" stroke="#4D4D4D" stroke-width="0.3" d="M11.2,5.8c0,1.1-0.9,2-2,2h-3
			c-1.1,0-2-0.9-2-2l0,0c0-1.1,0.9-2,2-2h3C10.3,3.8,11.2,4.7,11.2,5.8L11.2,5.8z"/>
		<path display="none" fill="#4D4D4D" d="M3.7,4.2v0.3H3.6c-0.4,0-0.7,0.1-0.9,0.3C2.6,5,2.5,5.3,2.5,5.8v1.1c0,0.5-0.1,0.8-0.2,1.1
			C2.2,8.2,2,8.4,1.6,8.5C2,8.6,2.2,8.8,2.3,9.1c0.1,0.2,0.2,0.6,0.2,1.1v1.1c0,0.5,0.1,0.8,0.2,1c0.1,0.2,0.4,0.3,0.9,0.3h0.2v0.3
			H3.6c-0.6,0-1-0.1-1.2-0.4c-0.2-0.2-0.3-0.7-0.3-1.3V10c0-0.5-0.1-0.8-0.3-1C1.7,8.8,1.4,8.7,0.9,8.7c0,0-0.1,0-0.1,0
			c0,0-0.1,0-0.1,0V8.3c0.1,0,0.1,0,0.2,0c0.4,0,0.7-0.1,0.9-0.3C2,7.8,2.1,7.5,2.1,7V6c0-0.7,0.1-1.1,0.3-1.3
			C2.6,4.4,3,4.2,3.6,4.2H3.7z"/>
		<path display="none" fill="#4D4D4D" d="M5,7.6C5,6.5,5.3,5.6,5.8,5C6.3,4.4,7,4.1,7.9,4.1S9.6,4.4,10.1,5c0.5,0.6,0.8,1.5,0.8,2.5
			c0,1.1-0.3,1.9-0.8,2.5C9.6,10.7,8.9,11,7.9,11s-1.6-0.3-2.1-0.9C5.3,9.5,5,8.7,5,7.6z M5.3,7.6c0,1,0.2,1.8,0.7,2.3
			c0.5,0.6,1.1,0.8,1.9,0.8c0.8,0,1.5-0.3,1.9-0.8c0.5-0.6,0.7-1.3,0.7-2.3c0-1-0.2-1.8-0.7-2.3C9.4,4.7,8.8,4.4,7.9,4.4
			C7.1,4.4,6.5,4.7,6,5.2C5.6,5.8,5.3,6.6,5.3,7.6z"/>
		<path display="none" fill="#4D4D4D" d="M12.2,4.2h0.1c0.6,0,1,0.1,1.2,0.4c0.2,0.2,0.3,0.7,0.3,1.3V7c0,0.5,0.1,0.8,0.3,1
			c0.2,0.2,0.5,0.3,0.9,0.3c0.1,0,0.2,0,0.2,0v0.3c0,0-0.1,0-0.1,0c0,0-0.1,0-0.1,0c-0.4,0-0.8,0.1-0.9,0.3c-0.2,0.2-0.3,0.5-0.3,1
			V11c0,0.7-0.1,1.1-0.3,1.3c-0.2,0.3-0.6,0.4-1.2,0.4h-0.1v-0.3h0.2c0.4,0,0.7-0.1,0.9-0.3c0.1-0.2,0.2-0.5,0.2-1v-1.1
			c0-0.5,0.1-0.8,0.2-1.1c0.1-0.3,0.4-0.4,0.7-0.6c-0.4-0.1-0.6-0.3-0.7-0.6c-0.1-0.2-0.2-0.6-0.2-1.1V5.8c0-0.5-0.1-0.8-0.2-1
			c-0.1-0.2-0.4-0.3-0.9-0.3h-0.2V4.2z"/>
		<path display="none" fill="#4D4D4D" d="M12.5,1.8h-1.3V1.4h3.1v0.4H13v3.2h-0.5V1.8z"/>
		
			<radialGradient id="XMLID_25_" cx="4.5928" cy="7.8525" r="3.2925" fx="4.5928" fy="7.8525" gradientTransform="matrix(1 0 0 0.6841 0 0.5727)" gradientUnits="userSpaceOnUse">
			<stop  offset="0" style="stop-color:#FFFFFF"/>
			<stop  offset="1" style="stop-color:#E5A76A"/>
			<a:midPointStop  offset="0" style="stop-color:#FFFFFF"/>
			<a:midPointStop  offset="0.5" style="stop-color:#FFFFFF"/>
			<a:midPointStop  offset="1" style="stop-color:#E5A76A"/>
		</radialGradient>
		<polygon display="none" fill="url(#XMLID_25_)" stroke="#4D4D4D" stroke-width="0.3" points="7.4,8.5 1.8,8.5 3.5,3.4 5.7,3.4 "/>
		<radialGradient id="XMLID_26_" cx="4.5938" cy="2.1743" r="1.6621" fx="4.5938" fy="2.1743" gradientUnits="userSpaceOnUse">
			<stop  offset="0" style="stop-color:#FFFFFF"/>
			<stop  offset="1" style="stop-color:#F5F683"/>
			<a:midPointStop  offset="0" style="stop-color:#FFFFFF"/>
			<a:midPointStop  offset="0.5" style="stop-color:#FFFFFF"/>
			<a:midPointStop  offset="1" style="stop-color:#F5F683"/>
		</radialGradient>
		<circle display="none" fill="url(#XMLID_26_)" stroke="#4D4D4D" stroke-width="0.3" cx="4.6" cy="2.2" r="1.7"/> 
		<radialGradient id="XMLID_27_" cx="7.9375" cy="9.2896" r="2.672" fx="7.9375" fy="9.2896" gradientUnits="userSpaceOnUse">
			<stop  offset="0" style="stop-color:#FFFFFF"/>
			<stop  offset="1" style="stop-color:#E5A76A"/>
			<a:midPointStop  offset="0" style="stop-color:#FFFFFF"/>
			<a:midPointStop  offset="0.5" style="stop-color:#FFFFFF"/>
			<a:midPointStop  offset="1" style="stop-color:#E5A76A"/>
		</radialGradient>
		<polygon display="none" fill="url(#XMLID_27_)" stroke="#4D4D4D" stroke-width="0.3" points="10.7,11.8 5.2,11.8 6.9,6.7 9,6.7 
			"/>
		<radialGradient id="XMLID_28_" cx="7.938" cy="5.5181" r="1.6619" fx="7.938" fy="5.5181" gradientUnits="userSpaceOnUse">
			<stop  offset="0" style="stop-color:#FFFFFF"/>
			<stop  offset="1" style="stop-color:#F5F683"/>
			<a:midPointStop  offset="0" style="stop-color:#FFFFFF"/>
			<a:midPointStop  offset="0.5" style="stop-color:#FFFFFF"/>
			<a:midPointStop  offset="1" style="stop-color:#F5F683"/>
		</radialGradient>
		<circle display="none" fill="url(#XMLID_28_)" stroke="#4D4D4D" stroke-width="0.3" cx="7.9" cy="5.5" r="1.7"/> 
		<radialGradient id="XMLID_29_" cx="11.2813" cy="12.6333" r="2.6725" fx="11.2813" fy="12.6333" gradientUnits="userSpaceOnUse">
			<stop  offset="0" style="stop-color:#FFFFFF"/>
			<stop  offset="1" style="stop-color:#E5A76A"/>
			<a:midPointStop  offset="0" style="stop-color:#FFFFFF"/>
			<a:midPointStop  offset="0.5" style="stop-color:#FFFFFF"/>
			<a:midPointStop  offset="1" style="stop-color:#E5A76A"/>
		</radialGradient>
		<polygon display="none" fill="url(#XMLID_29_)" stroke="#4D4D4D" stroke-width="0.3" points="14.1,15.2 8.5,15.2 10.2,10.1 
			12.4,10.1 "/>
		<radialGradient id="XMLID_30_" cx="11.2832" cy="8.8628" r="1.6611" fx="11.2832" fy="8.8628" gradientUnits="userSpaceOnUse">
			<stop  offset="0" style="stop-color:#FFFFFF"/>
			<stop  offset="1" style="stop-color:#F5F683"/>
			<a:midPointStop  offset="0" style="stop-color:#FFFFFF"/>
			<a:midPointStop  offset="0.5" style="stop-color:#FFFFFF"/>
			<a:midPointStop  offset="1" style="stop-color:#F5F683"/>
		</radialGradient>
		<circle display="none" fill="url(#XMLID_30_)" stroke="#4D4D4D" stroke-width="0.3" cx="11.3" cy="8.9" r="1.7"/> 
		
			<radialGradient id="XMLID_31_" cx="7.7505" cy="7.0449" r="4.7396" fx="7.7505" fy="7.0449" gradientTransform="matrix(1.0643 0 0 3.2162 -0.4631 -15.0187)" gradientUnits="userSpaceOnUse">
			<stop  offset="0" style="stop-color:#FFFFFF"/>
			<stop  offset="1" style="stop-color:#F5F683"/>
			<a:midPointStop  offset="0" style="stop-color:#FFFFFF"/>
			<a:midPointStop  offset="0.5" style="stop-color:#FFFFFF"/>
			<a:midPointStop  offset="1" style="stop-color:#F5F683"/>
		</radialGradient>
		
			<rect x="0.7" y="4.2" display="none" fill="url(#XMLID_31_)" stroke="#4D4D4D" stroke-width="0.3" stroke-miterlimit="5" width="14.1" height="6.9"/> 
		
			<line display="none" fill="none" stroke="#4D4D4D" stroke-width="0.3" stroke-miterlimit="5" x1="7.8" y1="7.6" x2="7.8" y2="4.2"/>
		<line display="none" fill="none" stroke="#4D4D4D" stroke-width="0.3" stroke-miterlimit="5" x1="3" y1="6.1" x2="3" y2="4.2"/>
		
			<line display="none" fill="none" stroke="#4D4D4D" stroke-width="0.3" stroke-miterlimit="5" x1="5.3" y1="6.1" x2="5.3" y2="4.2"/>
		<line display="none" fill="none" stroke="#4D4D4D" stroke-width="0.3" stroke-miterlimit="5" x1="10" y1="6.1" x2="10" y2="4.2"/>
		
			<line display="none" fill="none" stroke="#4D4D4D" stroke-width="0.3" stroke-miterlimit="5" x1="12.3" y1="6.1" x2="12.3" y2="4.2"/>
		
			<radialGradient id="XMLID_32_" cx="8.6431" cy="6.6665" r="4.1155" fx="8.6431" fy="6.6665" gradientTransform="matrix(1.0365 0 0 2.2457 -1.038945e-002 -10.1634)" gradientUnits="userSpaceOnUse">
			<stop  offset="0" style="stop-color:#FFFFFF"/>
			<stop  offset="0.2852" style="stop-color:#FBFCFB"/>
			<stop  offset="0.5718" style="stop-color:#EFF4F0"/>
			<stop  offset="0.8583" style="stop-color:#DBE7DD"/>
			<stop  offset="1" style="stop-color:#CEDFD1"/>
			<a:midPointStop  offset="0" style="stop-color:#FFFFFF"/>
			<a:midPointStop  offset="0.7062" style="stop-color:#FFFFFF"/>
			<a:midPointStop  offset="1" style="stop-color:#CEDFD1"/>
		</radialGradient>
		<rect x="3" y="2.7" display="none" fill="url(#XMLID_32_)" stroke="#4D4D4D" stroke-width="0.3" width="11.9" height="4.2"/> 
		<line display="none" fill="none" stroke="#4D4D4D" stroke-width="0.3" x1="8.9" y1="5.6" x2="8.9" y2="2.7"/>
		<line display="none" fill="none" stroke="#4D4D4D" stroke-width="0.3" x1="4.9" y1="4.4" x2="4.9" y2="2.7"/>
		<line display="none" fill="none" stroke="#4D4D4D" stroke-width="0.3" x1="6.8" y1="4.4" x2="6.8" y2="2.7"/>
		<line display="none" fill="none" stroke="#4D4D4D" stroke-width="0.3" x1="10.8" y1="4.4" x2="10.8" y2="2.7"/>
		<line display="none" fill="none" stroke="#4D4D4D" stroke-width="0.3" x1="12.8" y1="4.4" x2="12.8" y2="2.7"/>
		
			<radialGradient id="XMLID_33_" cx="7.6201" cy="8.1387" r="4.1159" fx="7.6201" fy="8.1387" gradientTransform="matrix(1.0365 0 0 2.2457 -1.038945e-002 -10.1634)" gradientUnits="userSpaceOnUse">
			<stop  offset="0" style="stop-color:#FFFFFF"/>
			<stop  offset="0.2852" style="stop-color:#FBFCFB"/>
			<stop  offset="0.5718" style="stop-color:#EFF4F0"/>
			<stop  offset="0.8583" style="stop-color:#DBE7DD"/>
			<stop  offset="1" style="stop-color:#CEDFD1"/>
			<a:midPointStop  offset="0" style="stop-color:#FFFFFF"/>
			<a:midPointStop  offset="0.7062" style="stop-color:#FFFFFF"/>
			<a:midPointStop  offset="1" style="stop-color:#CEDFD1"/>
		</radialGradient>
		<rect x="1.9" y="6" display="none" fill="url(#XMLID_33_)" stroke="#4D4D4D" stroke-width="0.3" width="11.9" height="4.2"/> 
		<line display="none" fill="none" stroke="#4D4D4D" stroke-width="0.3" x1="7.9" y1="8.9" x2="7.9" y2="6"/>
		<line display="none" fill="none" stroke="#4D4D4D" stroke-width="0.3" x1="3.8" y1="7.7" x2="3.8" y2="6"/>
		<line display="none" fill="none" stroke="#4D4D4D" stroke-width="0.3" x1="5.8" y1="7.7" x2="5.8" y2="6"/>
		<line display="none" fill="none" stroke="#4D4D4D" stroke-width="0.3" x1="9.7" y1="7.7" x2="9.7" y2="6"/>
		<line display="none" fill="none" stroke="#4D4D4D" stroke-width="0.3" x1="11.7" y1="7.7" x2="11.7" y2="6"/>
		
			<radialGradient id="XMLID_34_" cx="6.5967" cy="9.6108" r="4.1159" fx="6.5967" fy="9.6108" gradientTransform="matrix(1.0365 0 0 2.2457 -1.038945e-002 -10.1634)" gradientUnits="userSpaceOnUse">
			<stop  offset="0" style="stop-color:#FFFFFF"/>
			<stop  offset="0.2852" style="stop-color:#FBFCFB"/>
			<stop  offset="0.5718" style="stop-color:#EFF4F0"/>
			<stop  offset="0.8583" style="stop-color:#DBE7DD"/>
			<stop  offset="1" style="stop-color:#CEDFD1"/>
			<a:midPointStop  offset="0" style="stop-color:#FFFFFF"/>
			<a:midPointStop  offset="0.7062" style="stop-color:#FFFFFF"/>
			<a:midPointStop  offset="1" style="stop-color:#CEDFD1"/>
		</radialGradient>
		<rect x="0.9" y="9.3" display="none" fill="url(#XMLID_34_)" stroke="#4D4D4D" stroke-width="0.3" width="11.9" height="4.2"/> 
		<line display="none" fill="none" stroke="#4D4D4D" stroke-width="0.3" x1="6.8" y1="12.2" x2="6.8" y2="9.3"/>
		<line display="none" fill="none" stroke="#4D4D4D" stroke-width="0.3" x1="2.7" y1="11" x2="2.7" y2="9.3"/>
		<line display="none" fill="none" stroke="#4D4D4D" stroke-width="0.3" x1="4.7" y1="11" x2="4.7" y2="9.3"/>
		<line display="none" fill="none" stroke="#4D4D4D" stroke-width="0.3" x1="8.7" y1="11" x2="8.7" y2="9.3"/>
		<line display="none" fill="none" stroke="#4D4D4D" stroke-width="0.3" x1="10.7" y1="11" x2="10.7" y2="9.3"/>
		
			<radialGradient id="XMLID_35_" cx="18.625" cy="21.1655" r="1.7415" fx="18.625" fy="21.1655" gradientTransform="matrix(-1.0971 0 0 -1.0683 24.3088 36.9227)" gradientUnits="userSpaceOnUse">
			<stop  offset="0" style="stop-color:#FFFFFF"/>
			<stop  offset="1" style="stop-color:#E5A76A"/>
			<a:midPointStop  offset="0" style="stop-color:#FFFFFF"/>
			<a:midPointStop  offset="0.5" style="stop-color:#FFFFFF"/>
			<a:midPointStop  offset="1" style="stop-color:#E5A76A"/>
		</radialGradient>
		<path display="none" fill="url(#XMLID_35_)" stroke="#003B82" stroke-width="0.3" stroke-miterlimit="5" d="M6.6,14.3
			c-1.8,0-3.6,0-5.4,0"/>
		
			<radialGradient id="XMLID_36_" cx="14.8867" cy="24.7847" r="1.7408" fx="14.8867" fy="24.7847" gradientTransform="matrix(-1.9325 0 0 -1.0683 34.7009 36.9227)" gradientUnits="userSpaceOnUse">
			<stop  offset="0" style="stop-color:#FFFFFF"/>
			<stop  offset="1" style="stop-color:#E5A76A"/>
			<a:midPointStop  offset="0" style="stop-color:#FFFFFF"/>
			<a:midPointStop  offset="0.5" style="stop-color:#FFFFFF"/>
			<a:midPointStop  offset="1" style="stop-color:#E5A76A"/>
		</radialGradient>
		<path display="none" fill="url(#XMLID_36_)" stroke="#003B82" stroke-width="0.3" stroke-miterlimit="5" d="M10.7,10.4
			c-3.2,0-6.3,0-9.5,0"/>
		<path display="none" fill="none" stroke="#003B82" stroke-width="0.3" stroke-miterlimit="5" d="M14.8,6.6c-4.6,0-9.1,0-13.7,0
			v7.9"/>
		<path display="none" fill="#4D4D4D" d="M1.7,4.8l1.7-1.7L1.9,1.5h0.7l0.8,0.8c0.2,0.2,0.3,0.3,0.4,0.4C3.8,2.6,4,2.5,4.1,2.4
			L5,1.5h0.6L4.1,3.1l1.7,1.7H5L3.9,3.6C3.8,3.5,3.8,3.5,3.7,3.4C3.6,3.5,3.6,3.6,3.5,3.6L2.4,4.8H1.7z"/>
		<path display="none" fill="#5B7EE3" d="M7.5,4.8V3.4L5.8,1.5h0.7l0.9,1C7.5,2.7,7.7,2.9,7.8,3C8,2.9,8.1,2.7,8.3,2.5l0.9-1h0.7
			L8.1,3.4v1.4H7.5z"/>
		<path display="none" fill="#B50000" d="M10,4.8V4.4l2.3-2.1c0.2-0.1,0.3-0.3,0.5-0.4h-2.5V1.5h3.2v0.4L11,4.1l-0.3,0.2h2.8v0.4H10
			z"/>
		<path display="none" fill="#4D4D4D" d="M10.7,14.6l1.7-1.7l-1.5-1.6h0.7l0.8,0.8c0.2,0.2,0.3,0.3,0.4,0.4c0.1-0.1,0.2-0.2,0.4-0.4
			l0.9-0.9h0.6l-1.5,1.6l1.7,1.7H14l-1.1-1.2c-0.1-0.1-0.1-0.1-0.2-0.2c-0.1,0.1-0.2,0.2-0.2,0.2l-1.1,1.1H10.7z"/>
		<polyline display="none" fill="none" stroke="#003B82" stroke-width="0.6" stroke-miterlimit="5" points="7.7,1.5 10.7,1.4 
			10.7,4.5 "/>
		<polyline display="none" fill="none" stroke="#003B82" stroke-width="0.3" stroke-miterlimit="5" points="10.7,1.4 4.3,9.4 
			11,7.7 5.4,14.9 "/>
	</g>
</svg>
