<?xml version="1.0" encoding="utf-8"?>
<!-- Generator: Adobe Illustrator 11.0, SVG Export Plug-In  -->
<!DOCTYPE svg PUBLIC "-//W3C//DTD SVG 1.0//EN"    "http://www.w3.org/TR/2001/REC-SVG-20010904/DTD/svg10.dtd" [
	<!ENTITY ns_flows "http://ns.adobe.com/Flows/1.0/">
	<!ENTITY ns_svg "http://www.w3.org/2000/svg">
	<!ENTITY ns_xlink "http://www.w3.org/1999/xlink">
]>
<svg  xmlns="&ns_svg;" xmlns:xlink="&ns_xlink;" xmlns:a="http://ns.adobe.com/AdobeSVGViewerExtensions/3.0/"
	 width="16" height="16" viewBox="0 -0.1 16 16" xml:space="preserve">
	<defs>
	</defs>
	<g>
		
			<radialGradient id="XMLID_1_" cx="-251.8833" cy="388.3105" r="17.661" fx="-251.8833" fy="388.3105" gradientTransform="matrix(0.5043 0.5127 0.5043 -0.5127 -60.8279 345.0186)" gradientUnits="userSpaceOnUse">
			<stop  offset="0" style="stop-color:#FFFFFF"/>
			<stop  offset="1" style="stop-color:#E8B27C"/>
			<a:midPointStop  offset="0" style="stop-color:#FFFFFF"/>
			<a:midPointStop  offset="0.5" style="stop-color:#FFFFFF"/>
			<a:midPointStop  offset="1" style="stop-color:#E8B27C"/>
		</radialGradient>
		<polygon display="none" fill="url(#XMLID_1_)" stroke="#000000" stroke-width="0.55" points="7.9,15.4 0.6,7.9 7.9,0.4 15.3,7.9 
			"/>
		
			<radialGradient id="XMLID_2_" cx="10.8486" cy="4.9912" r="5.9612" fx="10.8486" fy="4.9912" gradientTransform="matrix(1.0096 0 0 0.9931 -7.591341e-002 0.1069)" gradientUnits="userSpaceOnUse">
			<stop  offset="0" style="stop-color:#FFFFFF"/>
			<stop  offset="1" style="stop-color:#F5F683"/>
			<a:midPointStop  offset="0" style="stop-color:#FFFFFF"/>
			<a:midPointStop  offset="0.5" style="stop-color:#FFFFFF"/>
			<a:midPointStop  offset="1" style="stop-color:#F5F683"/>
		</radialGradient>
		<circle display="none" fill="url(#XMLID_2_)" stroke="#000000" stroke-width="0.55" cx="7.9" cy="7.9" r="2.5"/> 
		<radialGradient id="XMLID_3_" cx="16.8105" cy="-0.9536" r="18.22" fx="16.8105" fy="-0.9536" gradientUnits="userSpaceOnUse">
			<stop  offset="0" style="stop-color:#FFFFFF"/>
			<stop  offset="1" style="stop-color:#F5F683"/>
			<a:midPointStop  offset="0" style="stop-color:#FFFFFF"/>
			<a:midPointStop  offset="0.5" style="stop-color:#FFFFFF"/>
			<a:midPointStop  offset="1" style="stop-color:#F5F683"/>
		</radialGradient>
		<circle display="none" fill="url(#XMLID_3_)" stroke="#000000" stroke-width="0.55" cx="7.9" cy="7.9" r="7.5"/> 
		<path display="none" d="M10.2,11.3c-0.3,0.2-1,0.3-1.9,0.3c-2,0-3.5-1.3-3.5-3.6c0-2.2,1.5-3.7,3.7-3.7c0.9,0,1.4,0.2,1.7,0.3
			L10,5.4C9.6,5.2,9.1,5.1,8.6,5.1C6.9,5.1,5.8,6.2,5.8,8c0,1.7,1,2.8,2.7,2.8c0.6,0,1.1-0.1,1.5-0.3L10.2,11.3z"/>
		<radialGradient id="XMLID_4_" cx="7.875" cy="2.5229" r="2.0613" fx="7.875" fy="2.5229" gradientUnits="userSpaceOnUse">
			<stop  offset="0" style="stop-color:#FFFFFF"/>
			<stop  offset="1" style="stop-color:#F5F683"/>
			<a:midPointStop  offset="0" style="stop-color:#FFFFFF"/>
			<a:midPointStop  offset="0.5" style="stop-color:#FFFFFF"/>
			<a:midPointStop  offset="1" style="stop-color:#F5F683"/>
		</radialGradient>
		
			<rect x="5.8" y="0.5" display="none" fill="url(#XMLID_4_)" stroke="#000000" stroke-width="0.55" stroke-miterlimit="5" width="4.1" height="4.1"/> 
		<line display="none" fill="none" stroke="#000000" stroke-width="0.55" stroke-miterlimit="5" x1="0.3" y1="8" x2="15.8" y2="8"/>
		
			<line display="none" fill="none" stroke="#000000" stroke-width="0.55" stroke-miterlimit="5" x1="7.9" y1="4.6" x2="7.9" y2="8"/>
		
			<radialGradient id="XMLID_5_" cx="3.3613" cy="9.6719" r="2.061" fx="3.3613" fy="9.6719" gradientTransform="matrix(-1 0 0 -1 15.8047 23.1367)" gradientUnits="userSpaceOnUse">
			<stop  offset="0" style="stop-color:#FFFFFF"/>
			<stop  offset="1" style="stop-color:#F5F683"/>
			<a:midPointStop  offset="0" style="stop-color:#FFFFFF"/>
			<a:midPointStop  offset="0.5" style="stop-color:#FFFFFF"/>
			<a:midPointStop  offset="1" style="stop-color:#F5F683"/>
		</radialGradient>
		
			<rect x="10.4" y="11.4" display="none" fill="url(#XMLID_5_)" stroke="#000000" stroke-width="0.55" stroke-miterlimit="5" width="4.1" height="4.1"/> 
		
			<line display="none" fill="none" stroke="#000000" stroke-width="0.55" stroke-miterlimit="5" x1="12.5" y1="11.4" x2="12.5" y2="8"/>
		
			<radialGradient id="XMLID_6_" cx="12.3389" cy="9.6719" r="2.0615" fx="12.3389" fy="9.6719" gradientTransform="matrix(-1 0 0 -1 15.8047 23.1367)" gradientUnits="userSpaceOnUse">
			<stop  offset="0" style="stop-color:#FFFFFF"/>
			<stop  offset="1" style="stop-color:#F5F683"/>
			<a:midPointStop  offset="0" style="stop-color:#FFFFFF"/>
			<a:midPointStop  offset="0.5" style="stop-color:#FFFFFF"/>
			<a:midPointStop  offset="1" style="stop-color:#F5F683"/>
		</radialGradient>
		
			<rect x="1.4" y="11.4" display="none" fill="url(#XMLID_6_)" stroke="#000000" stroke-width="0.55" stroke-miterlimit="5" width="4.1" height="4.1"/> 
		
			<line display="none" fill="none" stroke="#000000" stroke-width="0.55" stroke-miterlimit="5" x1="3.5" y1="11.4" x2="3.5" y2="8"/>
		<linearGradient id="XMLID_7_" gradientUnits="userSpaceOnUse" x1="1.6323" y1="7.0933" x2="14.4561" y2="7.0933">
			<stop  offset="0" style="stop-color:#BABABA"/>
			<stop  offset="1" style="stop-color:#FFFFFF"/>
			<a:midPointStop  offset="0" style="stop-color:#BABABA"/>
			<a:midPointStop  offset="0.5" style="stop-color:#BABABA"/>
			<a:midPointStop  offset="1" style="stop-color:#FFFFFF"/>
		</linearGradient>
		
			<circle display="none" fill="url(#XMLID_7_)" stroke="#000000" stroke-width="0.55" stroke-miterlimit="5" cx="8" cy="7.1" r="6.4"/> 
		<radialGradient id="XMLID_8_" cx="8.0439" cy="13.5059" r="2.0425" fx="8.0439" fy="13.5059" gradientUnits="userSpaceOnUse">
			<stop  offset="0" style="stop-color:#FFFFFF"/>
			<stop  offset="1" style="stop-color:#F5F683"/>
			<a:midPointStop  offset="0" style="stop-color:#FFFFFF"/>
			<a:midPointStop  offset="0.5" style="stop-color:#FFFFFF"/>
			<a:midPointStop  offset="1" style="stop-color:#F5F683"/>
		</radialGradient>
		
			<rect x="6" y="11.5" display="none" fill="url(#XMLID_8_)" stroke="#000000" stroke-width="0.55" stroke-miterlimit="5" width="4.1" height="4.1"/> 
		<line display="none" fill="none" stroke="#000000" stroke-width="0.55" stroke-miterlimit="5" x1="0" y1="7" x2="3.7" y2="7"/>
		<line display="none" fill="none" stroke="#000000" stroke-width="0.55" stroke-miterlimit="5" x1="6.1" y1="7" x2="9.9" y2="7"/>
		
			<line display="none" fill="none" stroke="#000000" stroke-width="0.55" stroke-miterlimit="5" x1="12.1" y1="7.1" x2="15.9" y2="7.1"/>
		<radialGradient id="XMLID_9_" cx="7.9971" cy="7.9209" r="4.9204" fx="7.9971" fy="7.9209" gradientUnits="userSpaceOnUse">
			<stop  offset="0" style="stop-color:#FFFFFF"/>
			<stop  offset="1" style="stop-color:#E8B27C"/>
			<a:midPointStop  offset="0" style="stop-color:#FFFFFF"/>
			<a:midPointStop  offset="0.5" style="stop-color:#FFFFFF"/>
			<a:midPointStop  offset="1" style="stop-color:#E8B27C"/>
		</radialGradient>
		<circle display="none" fill="url(#XMLID_9_)" stroke="#000000" stroke-width="0.55" cx="8" cy="7.9" r="4.9"/> 
		<line display="none" fill="none" stroke="#000000" stroke-width="0.55" x1="3.1" y1="7.9" x2="0.4" y2="7.9"/>
		<line display="none" fill="none" stroke="#000000" stroke-width="0.55" x1="0.4" y1="2.7" x2="0.4" y2="13.3"/>
		<line display="none" fill="none" stroke="#000000" stroke-width="0.55" x1="12.9" y1="8.1" x2="15.6" y2="8.1"/>
		<line display="none" fill="none" stroke="#000000" stroke-width="0.55" x1="15.6" y1="13.3" x2="15.6" y2="2.7"/>
		
			<line display="none" fill="none" stroke="#000000" stroke-width="0.55" stroke-miterlimit="5" x1="0.3" y1="15.5" x2="15.5" y2="0.3"/>
		<radialGradient id="XMLID_10_" cx="7.8872" cy="7.8809" r="2.7688" fx="7.8872" fy="7.8809" gradientUnits="userSpaceOnUse">
			<stop  offset="0" style="stop-color:#FFFFFF"/>
			<stop  offset="1" style="stop-color:#F5F683"/>
			<a:midPointStop  offset="0" style="stop-color:#FFFFFF"/>
			<a:midPointStop  offset="0.5" style="stop-color:#FFFFFF"/>
			<a:midPointStop  offset="1" style="stop-color:#F5F683"/>
		</radialGradient>
		<rect x="5.1" y="5.1" display="none" fill="url(#XMLID_10_)" stroke="#000000" stroke-width="0.55" width="5.5" height="5.5"/> 
		<path display="none" d="M0.1,4.2v-4h0.5v1.7h2.1V0.2h0.5v4H2.7V2.3H0.6v1.9H0.1z"/>
		<path display="none" d="M4.9,4.2l-1.1-4h0.6l0.6,2.6C5,3.1,5.1,3.4,5.1,3.6C5.2,3.2,5.3,3,5.3,2.9l0.8-2.7h0.6l0.6,2
			c0.1,0.5,0.2,1,0.3,1.4c0.1-0.3,0.1-0.5,0.2-0.9l0.6-2.6H9l-1.1,4H7.4L6.5,1.1C6.4,0.9,6.4,0.7,6.4,0.7c0,0.2-0.1,0.3-0.1,0.5
			L5.4,4.2H4.9z"/>
		<path display="none" d="M7.2,14.6l0.5,0c0,0.2,0.1,0.4,0.2,0.5c0.1,0.1,0.2,0.2,0.4,0.3c0.2,0.1,0.4,0.1,0.6,0.1
			c0.2,0,0.4,0,0.5-0.1c0.2-0.1,0.3-0.1,0.3-0.2c0.1-0.1,0.1-0.2,0.1-0.3c0-0.1,0-0.2-0.1-0.3c-0.1-0.1-0.2-0.2-0.4-0.2
			c-0.1,0-0.3-0.1-0.7-0.2c-0.4-0.1-0.6-0.2-0.8-0.3c-0.2-0.1-0.3-0.2-0.4-0.4c-0.1-0.2-0.1-0.3-0.1-0.5c0-0.2,0.1-0.4,0.2-0.6
			C7.6,12.1,7.8,12,8,11.9c0.2-0.1,0.5-0.1,0.7-0.1c0.3,0,0.6,0,0.8,0.1s0.4,0.2,0.5,0.4c0.1,0.2,0.2,0.4,0.2,0.6l-0.5,0
			c0-0.3-0.1-0.4-0.3-0.6c-0.2-0.1-0.4-0.2-0.7-0.2c-0.3,0-0.6,0.1-0.7,0.2c-0.1,0.1-0.2,0.3-0.2,0.4c0,0.1,0.1,0.3,0.2,0.4
			c0.1,0.1,0.4,0.2,0.8,0.3c0.4,0.1,0.7,0.2,0.9,0.3c0.2,0.1,0.4,0.2,0.5,0.4c0.1,0.2,0.2,0.4,0.2,0.6c0,0.2-0.1,0.4-0.2,0.6
			c-0.1,0.2-0.3,0.3-0.5,0.4c-0.2,0.1-0.5,0.2-0.8,0.2c-0.4,0-0.7-0.1-0.9-0.2c-0.2-0.1-0.4-0.3-0.6-0.5C7.3,15.1,7.2,14.8,7.2,14.6
			z"/>
		<path display="none" d="M11.8,15.9l-1.1-4h0.6l0.6,2.6c0.1,0.3,0.1,0.6,0.2,0.8c0.1-0.4,0.2-0.7,0.2-0.7l0.8-2.7h0.6l0.6,2
			c0.1,0.5,0.2,1,0.3,1.4c0.1-0.3,0.1-0.5,0.2-0.9l0.6-2.6h0.5l-1.1,4h-0.5l-0.8-3.1c-0.1-0.3-0.1-0.4-0.1-0.5
			c0,0.2-0.1,0.3-0.1,0.5l-0.9,3.1H11.8z"/>
		<radialGradient id="XMLID_11_" cx="16.9072" cy="-1.0488" r="18.4161" fx="16.9072" fy="-1.0488" gradientUnits="userSpaceOnUse">
			<stop  offset="0" style="stop-color:#FFFFFF"/>
			<stop  offset="0.2852" style="stop-color:#FBFCFB"/>
			<stop  offset="0.5718" style="stop-color:#EFF4F0"/>
			<stop  offset="0.8583" style="stop-color:#DBE7DD"/>
			<stop  offset="1" style="stop-color:#CEDFD1"/>
			<a:midPointStop  offset="0" style="stop-color:#FFFFFF"/>
			<a:midPointStop  offset="0.7062" style="stop-color:#FFFFFF"/>
			<a:midPointStop  offset="1" style="stop-color:#CEDFD1"/>
		</radialGradient>
		<circle display="none" fill="url(#XMLID_11_)" stroke="#000000" stroke-width="0.55" cx="7.9" cy="7.9" r="7.6"/> 
		<path display="none" d="M8.1,4.7C7.6,4.7,7.4,4.4,7.4,4c0-0.4,0.3-0.7,0.7-0.7c0.4,0,0.7,0.3,0.7,0.7C8.8,4.4,8.5,4.7,8.1,4.7
			L8.1,4.7z M7.5,12.1V5.9h1.1v6.2H7.5z"/>
		<line display="none" fill="none" stroke="#000000" stroke-width="0.55" x1="9.8" y1="7.9" x2="14.9" y2="7.9"/>
		<polyline display="none" fill="none" stroke="#000000" stroke-width="0.55" points="12.8,5.6 14.9,7.9 12.8,10.4 "/>
		<line display="none" fill="none" stroke="#000000" stroke-width="0.55" x1="6.1" y1="7.9" x2="0.9" y2="7.9"/>
		<polyline display="none" fill="none" stroke="#000000" stroke-width="0.55" points="3,10.2 0.9,7.9 3,5.4 "/>
		<linearGradient id="XMLID_12_" gradientUnits="userSpaceOnUse" x1="2.2197" y1="5.6699" x2="13.6436" y2="5.6699">
			<stop  offset="0" style="stop-color:#BABABA"/>
			<stop  offset="1" style="stop-color:#FFFFFF"/>
			<a:midPointStop  offset="0" style="stop-color:#BABABA"/>
			<a:midPointStop  offset="0.5" style="stop-color:#BABABA"/>
			<a:midPointStop  offset="1" style="stop-color:#FFFFFF"/>
		</linearGradient>
		<path display="none" fill="url(#XMLID_12_)" stroke="#000000" stroke-width="0.55" d="M2.2,8.5c0-3.2,2.6-5.7,5.7-5.7
			c3.2,0,5.7,2.6,5.7,5.7"/>
		<radialGradient id="XMLID_13_" cx="7.9316" cy="2.8135" r="2.457" fx="7.9316" fy="2.8135" gradientUnits="userSpaceOnUse">
			<stop  offset="0" style="stop-color:#FFFFFF"/>
			<stop  offset="1" style="stop-color:#F5F683"/>
			<a:midPointStop  offset="0" style="stop-color:#FFFFFF"/>
			<a:midPointStop  offset="0.5" style="stop-color:#FFFFFF"/>
			<a:midPointStop  offset="1" style="stop-color:#F5F683"/>
		</radialGradient>
		<rect x="5.5" y="0.4" display="none" fill="url(#XMLID_13_)" stroke="#000000" stroke-width="0.55" width="4.9" height="4.9"/> 
		<line display="none" fill="none" stroke="#000000" stroke-width="0.55" x1="0.2" y1="8.5" x2="15.5" y2="8.5"/>
		<path display="none" d="M2,15.2l-1.2-4.5h0.6l0.7,3c0.1,0.3,0.1,0.6,0.2,0.9c0.1-0.5,0.2-0.8,0.2-0.8l0.9-3.1h0.7l0.6,2.3
			C4.9,13.5,5,14,5.1,14.5c0.1-0.3,0.1-0.6,0.2-1l0.7-2.9h0.6l-1.2,4.5H4.8l-0.9-3.4c-0.1-0.3-0.1-0.5-0.1-0.5
			c0,0.2-0.1,0.4-0.1,0.5l-0.9,3.4H2z"/>
		<path display="none" d="M6.5,15.2l1.7-4.5h0.7l1.8,4.5H10l-0.5-1.4H7.6l-0.5,1.4H6.5z M7.8,13.3h1.5l-0.5-1.2
			c-0.1-0.4-0.2-0.7-0.3-0.9c-0.1,0.3-0.1,0.6-0.2,0.9L7.8,13.3z"/>
		<path display="none" d="M11.2,15.2v-4.5h0.6l2.4,3.6v-3.6h0.6v4.5h-0.6l-2.4-3.6v3.6H11.2z"/>
		<path display="none" d="M1,15.1v-4.7H2l1.1,3.3c0.1,0.3,0.2,0.5,0.2,0.7c0.1-0.2,0.1-0.4,0.3-0.8l1.1-3.3h0.8v4.7H4.9v-3.9
			l-1.4,3.9H3l-1.4-4v4H1z"/>
		<path display="none" d="M6,15.1l1.8-4.7h0.7l1.9,4.7H9.7l-0.5-1.4h-2l-0.5,1.4H6z M7.4,13.2H9l-0.5-1.3c-0.1-0.4-0.3-0.7-0.3-1
			c-0.1,0.3-0.1,0.6-0.3,0.9L7.4,13.2z"/>
		<path display="none" d="M10.9,15.1v-4.7h0.6l2.5,3.7v-3.7h0.6v4.7H14l-2.5-3.7v3.7H10.9z"/>
		<path display="none" d="M1.8,15.1v-4.7h0.6v4.2h2.3v0.6H1.8z"/>
		<path display="none" d="M5,15.1l1.8-4.7h0.7l1.9,4.7H8.7l-0.5-1.4h-2l-0.5,1.4H5z M6.3,13.2h1.6l-0.5-1.3c-0.1-0.4-0.3-0.7-0.3-1
			c-0.1,0.3-0.1,0.6-0.3,0.9L6.3,13.2z"/>
		<path display="none" d="M9.9,15.1v-4.7h0.7l2.5,3.7v-3.7h0.6v4.7H13l-2.5-3.7v3.7H9.9z"/>
		
			<linearGradient id="XMLID_14_" gradientUnits="userSpaceOnUse" x1="0.7822" y1="7.6523" x2="15.4307" y2="7.6523" gradientTransform="matrix(-0.5 -0.5 0.5 -0.5 8.2446 15.8921)">
			<stop  offset="0" style="stop-color:#BABABA"/>
			<stop  offset="1" style="stop-color:#FFFFFF"/>
			<a:midPointStop  offset="0" style="stop-color:#BABABA"/>
			<a:midPointStop  offset="0.5" style="stop-color:#BABABA"/>
			<a:midPointStop  offset="1" style="stop-color:#FFFFFF"/>
		</linearGradient>
		<polygon display="none" fill="url(#XMLID_14_)" stroke="#000000" stroke-width="0.55" points="8,0.7 15.3,8 8,15.3 0.7,8 "/>
		
			<radialGradient id="XMLID_15_" cx="5.6641" cy="9.7725" r="3.5083" fx="5.6641" fy="9.7725" gradientTransform="matrix(1.8565 0 0 1.7601 -2.9615 -8.7307)" gradientUnits="userSpaceOnUse">
			<stop  offset="0" style="stop-color:#FFFFFF"/>
			<stop  offset="1" style="stop-color:#F5F683"/>
			<a:midPointStop  offset="0" style="stop-color:#FFFFFF"/>
			<a:midPointStop  offset="0.5" style="stop-color:#FFFFFF"/>
			<a:midPointStop  offset="1" style="stop-color:#F5F683"/>
		</radialGradient>
		<rect x="1" y="2.3" display="none" fill="url(#XMLID_15_)" stroke="#000000" stroke-width="0.55" width="13" height="12.4"/> 
		<polyline display="none" fill="none" stroke="#000000" stroke-width="0.7" points="2.5,6.8 6.9,12.9 15.6,1.2 "/>
		
			<radialGradient id="XMLID_16_" cx="-289.3247" cy="373.1816" r="1.84" fx="-289.3247" fy="373.1816" gradientTransform="matrix(-0.7071 0.7071 0.7071 0.7071 -459.5243 -52.2203)" gradientUnits="userSpaceOnUse">
			<stop  offset="0" style="stop-color:#FFFFFF"/>
			<stop  offset="1" style="stop-color:#E5A76A"/>
			<a:midPointStop  offset="0" style="stop-color:#FFFFFF"/>
			<a:midPointStop  offset="0.5" style="stop-color:#FFFFFF"/>
			<a:midPointStop  offset="1" style="stop-color:#E5A76A"/>
		</radialGradient>
		<path display="none" fill="url(#XMLID_16_)" stroke="#4D4D4D" stroke-width="0.6" stroke-miterlimit="5" d="M10.8,5.2
			C9.5,6.5,8.3,7.7,7.1,9"/>
		<polyline display="none" fill="none" stroke="#4D4D4D" stroke-width="0.6" stroke-miterlimit="5" points="7.6,5.3 10.8,5.2 
			10.8,8.5 "/>
		<radialGradient id="XMLID_17_" cx="9.7705" cy="3.5957" r="3.6393" fx="9.7705" fy="3.5957" gradientUnits="userSpaceOnUse">
			<stop  offset="0" style="stop-color:#FFFFFF"/>
			<stop  offset="1" style="stop-color:#F5F683"/>
			<a:midPointStop  offset="0" style="stop-color:#FFFFFF"/>
			<a:midPointStop  offset="0.5" style="stop-color:#FFFFFF"/>
			<a:midPointStop  offset="1" style="stop-color:#F5F683"/>
		</radialGradient>
		<polygon display="none" fill="url(#XMLID_17_)" stroke="#000000" stroke-width="0.55" points="11.2,3.6 13.9,6.7 5.7,6.7 5.7,0.5 
			13.9,0.5 "/>
		<line display="none" fill="none" stroke="#000000" stroke-width="0.55" x1="5.7" y1="0.5" x2="5.7" y2="15.6"/>
		<line display="none" fill="none" stroke="#000000" stroke-width="0.55" x1="3.1" y1="15.6" x2="8.2" y2="15.6"/>
		
			<radialGradient id="XMLID_18_" cx="8.0488" cy="3.708" r="4.8389" fx="8.0488" fy="3.708" gradientTransform="matrix(1.1121 0 0 1 -0.9059 0)" gradientUnits="userSpaceOnUse">
			<stop  offset="0" style="stop-color:#FFFFFF"/>
			<stop  offset="1" style="stop-color:#F5F683"/>
			<a:midPointStop  offset="0" style="stop-color:#FFFFFF"/>
			<a:midPointStop  offset="0.5" style="stop-color:#FFFFFF"/>
			<a:midPointStop  offset="1" style="stop-color:#F5F683"/>
		</radialGradient>
		<polyline fill="url(#XMLID_18_)" stroke="#000000" stroke-width="0.55" points="14.8,6.7 8.1,0.6 1.2,6.8 "/>
		<polyline fill="none" stroke="#000000" stroke-width="0.55" points="14.7,3.1 14.8,6.7 10.7,6.7 "/>
		
			<radialGradient id="XMLID_19_" cx="8.1138" cy="12.2402" r="4.8382" fx="8.1138" fy="12.2402" gradientTransform="matrix(1.1121 0 0 1 -0.9059 0)" gradientUnits="userSpaceOnUse">
			<stop  offset="0" style="stop-color:#FFFFFF"/>
			<stop  offset="1" style="stop-color:#F5F683"/>
			<a:midPointStop  offset="0" style="stop-color:#FFFFFF"/>
			<a:midPointStop  offset="0.5" style="stop-color:#FFFFFF"/>
			<a:midPointStop  offset="1" style="stop-color:#F5F683"/>
		</radialGradient>
		<polyline fill="url(#XMLID_19_)" stroke="#000000" stroke-width="0.55" points="1.3,9.2 8.1,15.3 14.9,9.2 "/>
		<polyline fill="none" stroke="#000000" stroke-width="0.55" points="1.4,12.8 1.3,9.2 5.4,9.2 "/>
		<path display="none" fill="url(#XMLID_16_)" stroke="#4D4D4D" stroke-width="0.6" stroke-miterlimit="5" d="M10.8,5.2
			C9.5,6.5,8.3,7.7,7.1,9"/>
		<polyline display="none" fill="none" stroke="#4D4D4D" stroke-width="0.6" stroke-miterlimit="5" points="7.6,5.3 10.8,5.2 
			10.8,8.5 "/>
		<polygon display="none" fill="#003B82" points="6.5,10.5 5,8 6.5,5.4 9.4,5.4 10.9,8 9.4,10.5 "/>
		
			<line display="none" fill="none" stroke="#4D4D4D" stroke-width="0.3" stroke-miterlimit="10" x1="15.1" y1="8" x2="11.4" y2="8"/>
		<polyline display="none" fill="none" stroke="#4D4D4D" stroke-width="0.3" stroke-miterlimit="5" points="14.2,10.5 11.4,8 
			14.2,5.2 "/>
		<line display="none" fill="none" stroke="#4D4D4D" stroke-width="0.3" stroke-miterlimit="10" x1="0.8" y1="8" x2="4.5" y2="8"/>
		<polyline display="none" fill="none" stroke="#4D4D4D" stroke-width="0.3" stroke-miterlimit="5" points="1.7,5.4 4.5,8 1.7,10.7 
			"/>
		<radialGradient id="XMLID_21_" cx="4.4468" cy="9.9326" r="2.8775" fx="4.4468" fy="9.9326" gradientUnits="userSpaceOnUse">
			<stop  offset="0" style="stop-color:#FFFFFF"/>
			<stop  offset="0.2852" style="stop-color:#FBFCFB"/>
			<stop  offset="0.5718" style="stop-color:#EFF4F0"/>
			<stop  offset="0.8583" style="stop-color:#DBE7DD"/>
			<stop  offset="1" style="stop-color:#CEDFD1"/>
			<a:midPointStop  offset="0" style="stop-color:#FFFFFF"/>
			<a:midPointStop  offset="0.7062" style="stop-color:#FFFFFF"/>
			<a:midPointStop  offset="1" style="stop-color:#CEDFD1"/>
		</radialGradient>
		<path display="none" fill="url(#XMLID_21_)" stroke="#4D4D4D" stroke-width="0.3" d="M8,9.9c0,1.1-0.9,2-2,2h-3c-1.1,0-2-0.9-2-2
			l0,0c0-1.1,0.9-2,2-2h3C7.1,7.9,8,8.8,8,9.9L8,9.9z"/>
		<radialGradient id="XMLID_22_" cx="11.5029" cy="9.9326" r="2.8772" fx="11.5029" fy="9.9326" gradientUnits="userSpaceOnUse">
			<stop  offset="0" style="stop-color:#FFFFFF"/>
			<stop  offset="0.2852" style="stop-color:#FBFCFB"/>
			<stop  offset="0.5718" style="stop-color:#EFF4F0"/>
			<stop  offset="0.8583" style="stop-color:#DBE7DD"/>
			<stop  offset="1" style="stop-color:#CEDFD1"/>
			<a:midPointStop  offset="0" style="stop-color:#FFFFFF"/>
			<a:midPointStop  offset="0.7062" style="stop-color:#FFFFFF"/>
			<a:midPointStop  offset="1" style="stop-color:#CEDFD1"/>
		</radialGradient>
		<path display="none" fill="url(#XMLID_22_)" stroke="#4D4D4D" stroke-width="0.3" d="M15,9.9c0,1.1-0.9,2-2,2h-3c-1.1,0-2-0.9-2-2
			l0,0c0-1.1,0.9-2,2-2h3C14.1,7.9,15,8.8,15,9.9L15,9.9z"/>
		<radialGradient id="XMLID_23_" cx="7.7979" cy="5.876" r="2.8778" fx="7.7979" fy="5.876" gradientUnits="userSpaceOnUse">
			<stop  offset="0" style="stop-color:#FFFFFF"/>
			<stop  offset="1" style="stop-color:#F5F683"/>
			<a:midPointStop  offset="0" style="stop-color:#FFFFFF"/>
			<a:midPointStop  offset="0.5" style="stop-color:#FFFFFF"/>
			<a:midPointStop  offset="1" style="stop-color:#F5F683"/>
		</radialGradient>
		<path display="none" fill="url(#XMLID_23_)" stroke="#4D4D4D" stroke-width="0.3" d="M11.3,5.9c0,1.1-0.9,2-2,2h-3
			c-1.1,0-2-0.9-2-2l0,0c0-1.1,0.9-2,2-2h3C10.4,3.8,11.3,4.8,11.3,5.9L11.3,5.9z"/>
		<path display="none" fill="#4D4D4D" d="M3.8,4.3v0.3H3.6c-0.4,0-0.7,0.1-0.9,0.3C2.6,5,2.6,5.4,2.6,5.8v1.1c0,0.5-0.1,0.8-0.2,1.1
			C2.3,8.3,2.1,8.4,1.7,8.6c0.4,0.1,0.6,0.3,0.7,0.6c0.1,0.2,0.2,0.6,0.2,1.1v1.1c0,0.5,0.1,0.8,0.2,1c0.1,0.2,0.4,0.3,0.9,0.3h0.2
			v0.3H3.7c-0.6,0-1-0.1-1.2-0.4c-0.2-0.2-0.3-0.7-0.3-1.3V10c0-0.5-0.1-0.8-0.3-1C1.8,8.8,1.5,8.7,1,8.7c0,0-0.1,0-0.1,0
			c0,0-0.1,0-0.1,0V8.4c0.1,0,0.1,0,0.2,0c0.4,0,0.7-0.1,0.9-0.3c0.2-0.2,0.3-0.5,0.3-1V6c0-0.7,0.1-1.1,0.3-1.3
			c0.2-0.3,0.6-0.4,1.2-0.4H3.8z"/>
		<path display="none" fill="#4D4D4D" d="M5.1,7.6c0-1.1,0.3-1.9,0.8-2.5C6.4,4.5,7.1,4.2,8,4.2s1.6,0.3,2.2,0.9
			C10.7,5.7,11,6.6,11,7.6c0,1.1-0.3,1.9-0.8,2.5c-0.5,0.6-1.2,0.9-2.2,0.9s-1.6-0.3-2.1-0.9C5.4,9.6,5.1,8.7,5.1,7.6z M5.4,7.6
			c0,1,0.2,1.8,0.7,2.3c0.5,0.6,1.1,0.8,1.9,0.8c0.8,0,1.5-0.3,1.9-0.8c0.5-0.6,0.7-1.3,0.7-2.3c0-1-0.2-1.8-0.7-2.3
			C9.5,4.7,8.8,4.4,8,4.4c-0.8,0-1.5,0.3-1.9,0.8C5.6,5.9,5.4,6.6,5.4,7.6z"/>
		<path display="none" fill="#4D4D4D" d="M12.3,4.3h0.1c0.6,0,1,0.1,1.2,0.4c0.2,0.2,0.3,0.7,0.3,1.3v1.1c0,0.5,0.1,0.8,0.3,1
			c0.2,0.2,0.5,0.3,0.9,0.3c0.1,0,0.2,0,0.2,0v0.3c0,0-0.1,0-0.1,0c0,0-0.1,0-0.1,0c-0.4,0-0.8,0.1-0.9,0.3c-0.2,0.2-0.3,0.5-0.3,1
			v1.1c0,0.7-0.1,1.1-0.3,1.3c-0.2,0.3-0.6,0.4-1.2,0.4h-0.1v-0.3h0.2c0.4,0,0.7-0.1,0.9-0.3c0.1-0.2,0.2-0.5,0.2-1v-1.1
			c0-0.5,0.1-0.8,0.2-1.1c0.1-0.3,0.4-0.4,0.7-0.6C14,8.4,13.8,8.3,13.7,8c-0.1-0.2-0.2-0.6-0.2-1.1V5.8c0-0.5-0.1-0.8-0.2-1
			c-0.1-0.2-0.4-0.3-0.9-0.3h-0.2V4.3z"/>
		<path display="none" fill="#4D4D4D" d="M12.5,1.9h-1.3V1.5h3.1v0.4h-1.3v3.2h-0.5V1.9z"/>
		
			<radialGradient id="XMLID_24_" cx="4.6738" cy="7.9077" r="3.2925" fx="4.6738" fy="7.9077" gradientTransform="matrix(1 0 0 0.6841 0 0.5901)" gradientUnits="userSpaceOnUse">
			<stop  offset="0" style="stop-color:#FFFFFF"/>
			<stop  offset="1" style="stop-color:#E5A76A"/>
			<a:midPointStop  offset="0" style="stop-color:#FFFFFF"/>
			<a:midPointStop  offset="0.5" style="stop-color:#FFFFFF"/>
			<a:midPointStop  offset="1" style="stop-color:#E5A76A"/>
		</radialGradient>
		<polygon display="none" fill="url(#XMLID_24_)" stroke="#4D4D4D" stroke-width="0.3" points="7.5,8.6 1.9,8.6 3.6,3.4 5.7,3.4 "/>
		<radialGradient id="XMLID_25_" cx="4.6748" cy="2.2295" r="1.6621" fx="4.6748" fy="2.2295" gradientUnits="userSpaceOnUse">
			<stop  offset="0" style="stop-color:#FFFFFF"/>
			<stop  offset="1" style="stop-color:#F5F683"/>
			<a:midPointStop  offset="0" style="stop-color:#FFFFFF"/>
			<a:midPointStop  offset="0.5" style="stop-color:#FFFFFF"/>
			<a:midPointStop  offset="1" style="stop-color:#F5F683"/>
		</radialGradient>
		<circle display="none" fill="url(#XMLID_25_)" stroke="#4D4D4D" stroke-width="0.3" cx="4.7" cy="2.2" r="1.7"/> 
		<radialGradient id="XMLID_26_" cx="8.0186" cy="9.3447" r="2.672" fx="8.0186" fy="9.3447" gradientUnits="userSpaceOnUse">
			<stop  offset="0" style="stop-color:#FFFFFF"/>
			<stop  offset="1" style="stop-color:#E5A76A"/>
			<a:midPointStop  offset="0" style="stop-color:#FFFFFF"/>
			<a:midPointStop  offset="0.5" style="stop-color:#FFFFFF"/>
			<a:midPointStop  offset="1" style="stop-color:#E5A76A"/>
		</radialGradient>
		<polygon display="none" fill="url(#XMLID_26_)" stroke="#4D4D4D" stroke-width="0.3" points="10.8,11.9 5.2,11.9 6.9,6.8 9.1,6.8 
			"/>
		<radialGradient id="XMLID_27_" cx="8.019" cy="5.5732" r="1.6619" fx="8.019" fy="5.5732" gradientUnits="userSpaceOnUse">
			<stop  offset="0" style="stop-color:#FFFFFF"/>
			<stop  offset="1" style="stop-color:#F5F683"/>
			<a:midPointStop  offset="0" style="stop-color:#FFFFFF"/>
			<a:midPointStop  offset="0.5" style="stop-color:#FFFFFF"/>
			<a:midPointStop  offset="1" style="stop-color:#F5F683"/>
		</radialGradient>
		<circle display="none" fill="url(#XMLID_27_)" stroke="#4D4D4D" stroke-width="0.3" cx="8" cy="5.6" r="1.7"/> 
		<radialGradient id="XMLID_28_" cx="11.3623" cy="12.6885" r="2.6725" fx="11.3623" fy="12.6885" gradientUnits="userSpaceOnUse">
			<stop  offset="0" style="stop-color:#FFFFFF"/>
			<stop  offset="1" style="stop-color:#E5A76A"/>
			<a:midPointStop  offset="0" style="stop-color:#FFFFFF"/>
			<a:midPointStop  offset="0.5" style="stop-color:#FFFFFF"/>
			<a:midPointStop  offset="1" style="stop-color:#E5A76A"/>
		</radialGradient>
		<polygon display="none" fill="url(#XMLID_28_)" stroke="#4D4D4D" stroke-width="0.3" points="14.2,15.2 8.6,15.2 10.3,10.1 
			12.4,10.1 "/>
		<radialGradient id="XMLID_29_" cx="11.3643" cy="8.918" r="1.6611" fx="11.3643" fy="8.918" gradientUnits="userSpaceOnUse">
			<stop  offset="0" style="stop-color:#FFFFFF"/>
			<stop  offset="1" style="stop-color:#F5F683"/>
			<a:midPointStop  offset="0" style="stop-color:#FFFFFF"/>
			<a:midPointStop  offset="0.5" style="stop-color:#FFFFFF"/>
			<a:midPointStop  offset="1" style="stop-color:#F5F683"/>
		</radialGradient>
		<circle display="none" fill="url(#XMLID_29_)" stroke="#4D4D4D" stroke-width="0.3" cx="11.4" cy="8.9" r="1.7"/> 
		
			<radialGradient id="XMLID_30_" cx="7.8315" cy="7.1001" r="4.7396" fx="7.8315" fy="7.1001" gradientTransform="matrix(1.0643 0 0 3.2162 -0.4683 -15.141)" gradientUnits="userSpaceOnUse">
			<stop  offset="0" style="stop-color:#FFFFFF"/>
			<stop  offset="1" style="stop-color:#F5F683"/>
			<a:midPointStop  offset="0" style="stop-color:#FFFFFF"/>
			<a:midPointStop  offset="0.5" style="stop-color:#FFFFFF"/>
			<a:midPointStop  offset="1" style="stop-color:#F5F683"/>
		</radialGradient>
		
			<rect x="0.8" y="4.2" display="none" fill="url(#XMLID_30_)" stroke="#4D4D4D" stroke-width="0.3" stroke-miterlimit="5" width="14.1" height="6.9"/> 
		
			<line display="none" fill="none" stroke="#4D4D4D" stroke-width="0.3" stroke-miterlimit="5" x1="7.9" y1="7.7" x2="7.9" y2="4.2"/>
		<line display="none" fill="none" stroke="#4D4D4D" stroke-width="0.3" stroke-miterlimit="5" x1="3" y1="6.2" x2="3" y2="4.2"/>
		
			<line display="none" fill="none" stroke="#4D4D4D" stroke-width="0.3" stroke-miterlimit="5" x1="5.4" y1="6.2" x2="5.4" y2="4.2"/>
		
			<line display="none" fill="none" stroke="#4D4D4D" stroke-width="0.3" stroke-miterlimit="5" x1="10.1" y1="6.2" x2="10.1" y2="4.2"/>
		
			<line display="none" fill="none" stroke="#4D4D4D" stroke-width="0.3" stroke-miterlimit="5" x1="12.4" y1="6.2" x2="12.4" y2="4.2"/>
		
			<radialGradient id="XMLID_31_" cx="8.7241" cy="6.7217" r="4.1155" fx="8.7241" fy="6.7217" gradientTransform="matrix(1.0365 0 0 2.2457 -1.334794e-002 -10.2322)" gradientUnits="userSpaceOnUse">
			<stop  offset="0" style="stop-color:#FFFFFF"/>
			<stop  offset="0.2852" style="stop-color:#FBFCFB"/>
			<stop  offset="0.5718" style="stop-color:#EFF4F0"/>
			<stop  offset="0.8583" style="stop-color:#DBE7DD"/>
			<stop  offset="1" style="stop-color:#CEDFD1"/>
			<a:midPointStop  offset="0" style="stop-color:#FFFFFF"/>
			<a:midPointStop  offset="0.7062" style="stop-color:#FFFFFF"/>
			<a:midPointStop  offset="1" style="stop-color:#CEDFD1"/>
		</radialGradient>
		<rect x="3.1" y="2.8" display="none" fill="url(#XMLID_31_)" stroke="#4D4D4D" stroke-width="0.3" width="11.9" height="4.2"/> 
		<line display="none" fill="none" stroke="#4D4D4D" stroke-width="0.3" x1="9" y1="5.7" x2="9" y2="2.8"/>
		<line display="none" fill="none" stroke="#4D4D4D" stroke-width="0.3" x1="4.9" y1="4.4" x2="4.9" y2="2.8"/>
		<line display="none" fill="none" stroke="#4D4D4D" stroke-width="0.3" x1="6.9" y1="4.4" x2="6.9" y2="2.8"/>
		<line display="none" fill="none" stroke="#4D4D4D" stroke-width="0.3" x1="10.9" y1="4.4" x2="10.9" y2="2.8"/>
		<line display="none" fill="none" stroke="#4D4D4D" stroke-width="0.3" x1="12.9" y1="4.4" x2="12.9" y2="2.8"/>
		
			<radialGradient id="XMLID_32_" cx="7.7012" cy="8.1938" r="4.1159" fx="7.7012" fy="8.1938" gradientTransform="matrix(1.0365 0 0 2.2457 -1.334794e-002 -10.2322)" gradientUnits="userSpaceOnUse">
			<stop  offset="0" style="stop-color:#FFFFFF"/>
			<stop  offset="0.2852" style="stop-color:#FBFCFB"/>
			<stop  offset="0.5718" style="stop-color:#EFF4F0"/>
			<stop  offset="0.8583" style="stop-color:#DBE7DD"/>
			<stop  offset="1" style="stop-color:#CEDFD1"/>
			<a:midPointStop  offset="0" style="stop-color:#FFFFFF"/>
			<a:midPointStop  offset="0.7062" style="stop-color:#FFFFFF"/>
			<a:midPointStop  offset="1" style="stop-color:#CEDFD1"/>
		</radialGradient>
		<rect x="2" y="6.1" display="none" fill="url(#XMLID_32_)" stroke="#4D4D4D" stroke-width="0.3" width="11.9" height="4.2"/> 
		<line display="none" fill="none" stroke="#4D4D4D" stroke-width="0.3" x1="8" y1="9" x2="8" y2="6.1"/>
		<line display="none" fill="none" stroke="#4D4D4D" stroke-width="0.3" x1="3.9" y1="7.7" x2="3.9" y2="6.1"/>
		<line display="none" fill="none" stroke="#4D4D4D" stroke-width="0.3" x1="5.9" y1="7.7" x2="5.9" y2="6.1"/>
		<line display="none" fill="none" stroke="#4D4D4D" stroke-width="0.3" x1="9.8" y1="7.7" x2="9.8" y2="6.1"/>
		<line display="none" fill="none" stroke="#4D4D4D" stroke-width="0.3" x1="11.8" y1="7.7" x2="11.8" y2="6.1"/>
		
			<radialGradient id="XMLID_33_" cx="6.6777" cy="9.666" r="4.1159" fx="6.6777" fy="9.666" gradientTransform="matrix(1.0365 0 0 2.2457 -1.334794e-002 -10.2322)" gradientUnits="userSpaceOnUse">
			<stop  offset="0" style="stop-color:#FFFFFF"/>
			<stop  offset="0.2852" style="stop-color:#FBFCFB"/>
			<stop  offset="0.5718" style="stop-color:#EFF4F0"/>
			<stop  offset="0.8583" style="stop-color:#DBE7DD"/>
			<stop  offset="1" style="stop-color:#CEDFD1"/>
			<a:midPointStop  offset="0" style="stop-color:#FFFFFF"/>
			<a:midPointStop  offset="0.7062" style="stop-color:#FFFFFF"/>
			<a:midPointStop  offset="1" style="stop-color:#CEDFD1"/>
		</radialGradient>
		<rect x="1" y="9.4" display="none" fill="url(#XMLID_33_)" stroke="#4D4D4D" stroke-width="0.3" width="11.9" height="4.2"/> 
		<line display="none" fill="none" stroke="#4D4D4D" stroke-width="0.3" x1="6.9" y1="12.3" x2="6.9" y2="9.4"/>
		<line display="none" fill="none" stroke="#4D4D4D" stroke-width="0.3" x1="2.8" y1="11" x2="2.8" y2="9.4"/>
		<line display="none" fill="none" stroke="#4D4D4D" stroke-width="0.3" x1="4.8" y1="11" x2="4.8" y2="9.4"/>
		<line display="none" fill="none" stroke="#4D4D4D" stroke-width="0.3" x1="8.8" y1="11" x2="8.8" y2="9.4"/>
		<line display="none" fill="none" stroke="#4D4D4D" stroke-width="0.3" x1="10.7" y1="11" x2="10.7" y2="9.4"/>
		
			<radialGradient id="XMLID_34_" cx="18.7061" cy="21.2207" r="1.7415" fx="18.7061" fy="21.2207" gradientTransform="matrix(-1.0971 0 0 -1.0683 24.4788 37.0368)" gradientUnits="userSpaceOnUse">
			<stop  offset="0" style="stop-color:#FFFFFF"/>
			<stop  offset="1" style="stop-color:#E5A76A"/>
			<a:midPointStop  offset="0" style="stop-color:#FFFFFF"/>
			<a:midPointStop  offset="0.5" style="stop-color:#FFFFFF"/>
			<a:midPointStop  offset="1" style="stop-color:#E5A76A"/>
		</radialGradient>
		<path display="none" fill="url(#XMLID_34_)" stroke="#003B82" stroke-width="0.3" stroke-miterlimit="5" d="M6.7,14.4
			c-1.8,0-3.6,0-5.4,0"/>
		
			<radialGradient id="XMLID_35_" cx="14.9678" cy="24.8398" r="1.7408" fx="14.9678" fy="24.8398" gradientTransform="matrix(-1.9325 0 0 -1.0683 34.9386 37.0368)" gradientUnits="userSpaceOnUse">
			<stop  offset="0" style="stop-color:#FFFFFF"/>
			<stop  offset="1" style="stop-color:#E5A76A"/>
			<a:midPointStop  offset="0" style="stop-color:#FFFFFF"/>
			<a:midPointStop  offset="0.5" style="stop-color:#FFFFFF"/>
			<a:midPointStop  offset="1" style="stop-color:#E5A76A"/>
		</radialGradient>
		<path display="none" fill="url(#XMLID_35_)" stroke="#003B82" stroke-width="0.3" stroke-miterlimit="5" d="M10.8,10.5
			c-3.2,0-6.3,0-9.5,0"/>
		<path display="none" fill="none" stroke="#003B82" stroke-width="0.3" stroke-miterlimit="5" d="M14.9,6.6c-4.6,0-9.1,0-13.7,0
			v7.9"/>
		<path display="none" fill="#4D4D4D" d="M1.8,4.8l1.7-1.7L2,1.6h0.7l0.8,0.8c0.2,0.2,0.3,0.3,0.4,0.4C3.9,2.7,4,2.5,4.2,2.4L5,1.6
			h0.6L4.2,3.1l1.7,1.7H5.1L4,3.7C3.9,3.6,3.9,3.5,3.8,3.5C3.7,3.6,3.6,3.6,3.6,3.7L2.5,4.8H1.8z"/>
		<path display="none" fill="#5B7EE3" d="M7.6,4.8V3.4L5.9,1.6h0.7l0.9,1c0.2,0.2,0.3,0.4,0.4,0.5C8,2.9,8.2,2.7,8.4,2.5l0.9-1h0.7
			L8.2,3.4v1.4H7.6z"/>
		<path display="none" fill="#B50000" d="M10.1,4.8V4.4l2.3-2.1c0.2-0.1,0.3-0.3,0.5-0.4h-2.5V1.6h3.2v0.4L11,4.2l-0.3,0.2h2.8v0.4
			H10.1z"/>
		<path display="none" fill="#4D4D4D" d="M10.8,14.7l1.7-1.7l-1.5-1.6h0.7l0.8,0.8c0.2,0.2,0.3,0.3,0.4,0.4c0.1-0.1,0.2-0.2,0.4-0.4
			l0.9-0.9h0.6L13.1,13l1.7,1.7h-0.7L13,13.5c-0.1-0.1-0.1-0.1-0.2-0.2c-0.1,0.1-0.2,0.2-0.2,0.2l-1.1,1.1H10.8z"/>
		<polyline display="none" fill="none" stroke="#003B82" stroke-width="0.6" stroke-miterlimit="5" points="7.7,1.5 10.8,1.4 
			10.8,4.5 "/>
		<polyline display="none" fill="none" stroke="#003B82" stroke-width="0.3" stroke-miterlimit="5" points="10.8,1.4 4.4,9.5 
			11.1,7.7 5.5,15 "/>
	</g>
</svg>
