<?xml version="1.0" encoding="utf-8"?>
<!-- Generator: Adobe Illustrator 19.2.0, SVG Export Plug-In . SVG Version: 6.00 Build 0)  -->
<svg version="1.1" id="Layer_1" xmlns="http://www.w3.org/2000/svg" xmlns:xlink="http://www.w3.org/1999/xlink" x="0px" y="0px"
	 width="16px" height="16px" viewBox="0 0 16 16" enable-background="new 0 0 16 16" xml:space="preserve">
<g>
	<polygon fill="#3F51B5" points="3,9.001 3,9.751 5.72,9.751 3.995,11.476 4.525,12.006 6.25,10.281 6.25,13.001 7,13.001 7,9.001 	
		"/>
	
		<rect x="-0.247" y="14.122" transform="matrix(0.7071 -0.7071 0.7071 0.7071 -9.8106 5.308)" fill="#3F51B5" width="3.5" height="0.75"/>
</g>
<g>
	
		<radialGradient id="SVGID_1_" cx="301.1185" cy="415.34" r="4.2765" gradientTransform="matrix(1 0 0 1 -289.6 -410.84)" gradientUnits="userSpaceOnUse">
		<stop  offset="0" style="stop-color:#FFFFFF"/>
		<stop  offset="1" style="stop-color:#F5F683"/>
	</radialGradient>
	<circle fill="url(#SVGID_1_)" cx="11.5" cy="4.5" r="4.25"/>
	<path fill="#231F20" d="M11.5,0.5c2.206,0,4,1.794,4,4s-1.794,4-4,4s-4-1.794-4-4S9.294,0.5,11.5,0.5 M11.5,0
		C9.015,0,7,2.015,7,4.5S9.015,9,11.5,9S16,6.985,16,4.5S13.985,0,11.5,0L11.5,0z"/>
</g>
<g>
	<path d="M12.598,6.146c-0.22,0.11-0.549,0.22-1.098,0.22c-1.207,0-1.866-0.768-1.866-1.976s0.768-2.085,2.085-2.085
		c0.439,0,0.768,0.11,0.988,0.22l-0.22,0.659c-0.22-0.11-0.439-0.22-0.878-0.22c-0.878,0-1.317,0.659-1.317,1.427
		c0,0.878,0.549,1.427,1.317,1.427c0.439,0,0.659-0.11,0.878-0.22L12.598,6.146z"/>
</g>
</svg>
