<?xml version="1.0" encoding="utf-8"?>
<!-- Generator: Adobe Illustrator 19.2.0, SVG Export Plug-In . SVG Version: 6.00 Build 0)  -->
<svg version="1.1" id="Layer_1" xmlns="http://www.w3.org/2000/svg" xmlns:xlink="http://www.w3.org/1999/xlink" x="0px" y="0px"
	 width="16px" height="16px" viewBox="0 0 16 16" enable-background="new 0 0 16 16" xml:space="preserve">
<g>
	
		<radialGradient id="SVGID_1_" cx="388.0695" cy="1456.2592" r="2.9682" gradientTransform="matrix(0.8981 0 0 1.03 -342.7407 -1492.4949)" gradientUnits="userSpaceOnUse">
		<stop  offset="0" style="stop-color:#FFFFFF"/>
		<stop  offset="0.2852" style="stop-color:#FBFCFB"/>
		<stop  offset="0.5718" style="stop-color:#EFF4F0"/>
		<stop  offset="0.8583" style="stop-color:#DBE7DD"/>
		<stop  offset="1" style="stop-color:#CEDFD1"/>
	</radialGradient>
	<path fill="url(#SVGID_1_)" stroke="#000000" stroke-width="0.55" d="M9.034,7.452c0,1.202-0.858,2.146-1.888,2.146H4.398
		c-1.029,0-1.888-0.944-1.888-2.146l0,0c0-1.203,0.859-2.146,1.888-2.146h2.748C8.176,5.306,9.034,6.25,9.034,7.452L9.034,7.452z"/>
	
		<radialGradient id="SVGID_2_" cx="395.3459" cy="1456.2592" r="2.9678" gradientTransform="matrix(0.8981 0 0 1.03 -342.7407 -1492.4949)" gradientUnits="userSpaceOnUse">
		<stop  offset="0" style="stop-color:#FFFFFF"/>
		<stop  offset="0.2852" style="stop-color:#FBFCFB"/>
		<stop  offset="0.5718" style="stop-color:#EFF4F0"/>
		<stop  offset="0.8583" style="stop-color:#DBE7DD"/>
		<stop  offset="1" style="stop-color:#CEDFD1"/>
	</radialGradient>
	<path fill="url(#SVGID_2_)" stroke="#000000" stroke-width="0.55" d="M15.558,7.452c0,1.202-0.858,2.146-1.888,2.146h-2.746
		c-1.031,0-1.89-0.944-1.89-2.146l0,0c0-1.203,0.858-2.146,1.89-2.146h2.746C14.787,5.306,15.558,6.25,15.558,7.452L15.558,7.452z"
		/>
	
		<radialGradient id="SVGID_3_" cx="391.5255" cy="1452.0731" r="2.968" gradientTransform="matrix(0.8981 0 0 1.03 -342.7407 -1492.4949)" gradientUnits="userSpaceOnUse">
		<stop  offset="0" style="stop-color:#FFFFFF"/>
		<stop  offset="1" style="stop-color:#F5F683"/>
	</radialGradient>
	<path fill="url(#SVGID_3_)" stroke="#000000" stroke-width="0.55" d="M12.124,3.16c0,1.202-0.858,2.146-1.888,2.146H7.489
		C6.459,5.306,5.6,4.361,5.6,3.16l0,0c0-1.202,0.859-2.146,1.889-2.146h2.747C11.354,1.014,12.124,1.958,12.124,3.16L12.124,3.16z"
		/>
</g>
<g>
	
		<radialGradient id="SVGID_4_" cx="293.5866" cy="1109.1267" r="3.6648" gradientTransform="matrix(1 0 0 1 -289.6 -1097.11)" gradientUnits="userSpaceOnUse">
		<stop  offset="0" style="stop-color:#FFFFFF"/>
		<stop  offset="1" style="stop-color:#E5A76A"/>
	</radialGradient>
	<circle fill="url(#SVGID_4_)" cx="4" cy="12" r="3.625"/>
	<path fill="#424242" d="M4,8.75c1.792,0,3.25,1.458,3.25,3.25S5.792,15.25,4,15.25S0.75,13.792,0.75,12S2.208,8.75,4,8.75 M4,8
		c-2.209,0-4,1.791-4,4s1.791,4,4,4s4-1.791,4-4S6.209,8,4,8L4,8z"/>
</g>
</svg>
