<?xml version="1.0" encoding="utf-8"?>
<!-- Generator: Adobe Illustrator 11.0, SVG Export Plug-In  -->
<!DOCTYPE svg PUBLIC "-//W3C//DTD SVG 1.0//EN"    "http://www.w3.org/TR/2001/REC-SVG-20010904/DTD/svg10.dtd" [
	<!ENTITY ns_flows "http://ns.adobe.com/Flows/1.0/">
	<!ENTITY ns_svg "http://www.w3.org/2000/svg">
	<!ENTITY ns_xlink "http://www.w3.org/1999/xlink">
]>
<svg  xmlns="&ns_svg;" xmlns:xlink="&ns_xlink;" xmlns:a="http://ns.adobe.com/AdobeSVGViewerExtensions/3.0/"
	 width="16" height="16" viewBox="0 0 16 16" xml:space="preserve">
	<defs>
	</defs>
	<g>
		<rect fill="none" width="16" height="16"/> 
		
			<radialGradient id="XMLID_1_" cx="15.0654" cy="-11.6597" r="12.6265" fx="15.0654" fy="-11.6597" gradientTransform="matrix(0.7071 -0.707 0.7071 0.707 5.6412 18.1924)" gradientUnits="userSpaceOnUse">
			<stop  offset="0" style="stop-color:#FFFFFF"/>
			<stop  offset="1" style="stop-color:#E8B27C"/>
			<a:midPointStop  offset="0" style="stop-color:#FFFFFF"/>
			<a:midPointStop  offset="0.5" style="stop-color:#FFFFFF"/>
			<a:midPointStop  offset="1" style="stop-color:#E8B27C"/>
		</radialGradient>
		<path fill="url(#XMLID_1_)" stroke="#000000" stroke-width="0.55" d="M15.4,8L8,15.4L0.6,8L8,0.6L15.4,8z"/>
		
			<radialGradient id="XMLID_2_" cx="10.6738" cy="5.0986" r="5.9607" fx="10.6738" fy="5.0986" gradientTransform="matrix(1.0096 0 0 0.9931 0.1792 6.258869e-002)" gradientUnits="userSpaceOnUse">
			<stop  offset="0" style="stop-color:#FFFFFF"/>
			<stop  offset="1" style="stop-color:#F5F683"/>
			<a:midPointStop  offset="0" style="stop-color:#FFFFFF"/>
			<a:midPointStop  offset="0.5" style="stop-color:#FFFFFF"/>
			<a:midPointStop  offset="1" style="stop-color:#F5F683"/>
		</radialGradient>
		<circle fill="url(#XMLID_2_)" stroke="#000000" stroke-width="0.55" cx="8" cy="8" r="2.5"/> 
		<radialGradient id="XMLID_3_" cx="16.8564" cy="-0.8716" r="18.22" fx="16.8564" fy="-0.8716" gradientUnits="userSpaceOnUse">
			<stop  offset="0" style="stop-color:#FFFFFF"/>
			<stop  offset="1" style="stop-color:#F5F683"/>
			<a:midPointStop  offset="0" style="stop-color:#FFFFFF"/>
			<a:midPointStop  offset="0.5" style="stop-color:#FFFFFF"/>
			<a:midPointStop  offset="1" style="stop-color:#F5F683"/>
		</radialGradient>
		<circle display="none" fill="url(#XMLID_3_)" stroke="#000000" stroke-width="0.55" cx="7.9" cy="8" r="7.5"/> 
		<path display="none" d="M10.2,11.4c-0.3,0.2-1,0.3-1.9,0.3c-2,0-3.5-1.3-3.5-3.6c0-2.2,1.5-3.7,3.7-3.7c0.9,0,1.4,0.2,1.7,0.3
			L10,5.5C9.7,5.3,9.2,5.2,8.6,5.2c-1.7,0-2.7,1.1-2.7,2.9c0,1.7,1,2.8,2.7,2.8c0.6,0,1.1-0.1,1.5-0.3L10.2,11.4z"/>
		<radialGradient id="XMLID_4_" cx="7.9209" cy="2.605" r="2.0613" fx="7.9209" fy="2.605" gradientUnits="userSpaceOnUse">
			<stop  offset="0" style="stop-color:#FFFFFF"/>
			<stop  offset="1" style="stop-color:#F5F683"/>
			<a:midPointStop  offset="0" style="stop-color:#FFFFFF"/>
			<a:midPointStop  offset="0.5" style="stop-color:#FFFFFF"/>
			<a:midPointStop  offset="1" style="stop-color:#F5F683"/>
		</radialGradient>
		
			<rect x="5.9" y="0.5" display="none" fill="url(#XMLID_4_)" stroke="#000000" stroke-width="0.55" stroke-miterlimit="5" width="4.1" height="4.1"/> 
		
			<line display="none" fill="none" stroke="#000000" stroke-width="0.55" stroke-miterlimit="5" x1="0.3" y1="8.1" x2="15.9" y2="8.1"/>
		
			<line display="none" fill="none" stroke="#000000" stroke-width="0.55" stroke-miterlimit="5" x1="7.9" y1="4.7" x2="7.9" y2="8.1"/>
		
			<radialGradient id="XMLID_5_" cx="3.4072" cy="9.7539" r="2.061" fx="3.4072" fy="9.7539" gradientTransform="matrix(-1 0 0 -1 15.8965 23.3008)" gradientUnits="userSpaceOnUse">
			<stop  offset="0" style="stop-color:#FFFFFF"/>
			<stop  offset="1" style="stop-color:#F5F683"/>
			<a:midPointStop  offset="0" style="stop-color:#FFFFFF"/>
			<a:midPointStop  offset="0.5" style="stop-color:#FFFFFF"/>
			<a:midPointStop  offset="1" style="stop-color:#F5F683"/>
		</radialGradient>
		
			<rect x="10.4" y="11.5" display="none" fill="url(#XMLID_5_)" stroke="#000000" stroke-width="0.55" stroke-miterlimit="5" width="4.1" height="4.1"/> 
		
			<line display="none" fill="none" stroke="#000000" stroke-width="0.55" stroke-miterlimit="5" x1="12.5" y1="11.5" x2="12.5" y2="8.1"/>
		
			<radialGradient id="XMLID_6_" cx="12.3848" cy="9.7539" r="2.0615" fx="12.3848" fy="9.7539" gradientTransform="matrix(-1 0 0 -1 15.8965 23.3008)" gradientUnits="userSpaceOnUse">
			<stop  offset="0" style="stop-color:#FFFFFF"/>
			<stop  offset="1" style="stop-color:#F5F683"/>
			<a:midPointStop  offset="0" style="stop-color:#FFFFFF"/>
			<a:midPointStop  offset="0.5" style="stop-color:#FFFFFF"/>
			<a:midPointStop  offset="1" style="stop-color:#F5F683"/>
		</radialGradient>
		
			<rect x="1.4" y="11.5" display="none" fill="url(#XMLID_6_)" stroke="#000000" stroke-width="0.55" stroke-miterlimit="5" width="4.1" height="4.1"/> 
		
			<line display="none" fill="none" stroke="#000000" stroke-width="0.55" stroke-miterlimit="5" x1="3.5" y1="11.5" x2="3.5" y2="8.1"/>
		<linearGradient id="XMLID_7_" gradientUnits="userSpaceOnUse" x1="1.6782" y1="7.1753" x2="14.502" y2="7.1753">
			<stop  offset="0" style="stop-color:#BABABA"/>
			<stop  offset="1" style="stop-color:#FFFFFF"/>
			<a:midPointStop  offset="0" style="stop-color:#BABABA"/>
			<a:midPointStop  offset="0.5" style="stop-color:#BABABA"/>
			<a:midPointStop  offset="1" style="stop-color:#FFFFFF"/>
		</linearGradient>
		
			<circle display="none" fill="url(#XMLID_7_)" stroke="#000000" stroke-width="0.55" stroke-miterlimit="5" cx="8.1" cy="7.2" r="6.4"/> 
		<radialGradient id="XMLID_8_" cx="8.0898" cy="13.5879" r="2.0425" fx="8.0898" fy="13.5879" gradientUnits="userSpaceOnUse">
			<stop  offset="0" style="stop-color:#FFFFFF"/>
			<stop  offset="1" style="stop-color:#F5F683"/>
			<a:midPointStop  offset="0" style="stop-color:#FFFFFF"/>
			<a:midPointStop  offset="0.5" style="stop-color:#FFFFFF"/>
			<a:midPointStop  offset="1" style="stop-color:#F5F683"/>
		</radialGradient>
		
			<rect x="6" y="11.5" display="none" fill="url(#XMLID_8_)" stroke="#000000" stroke-width="0.55" stroke-miterlimit="5" width="4.1" height="4.1"/> 
		
			<line display="none" fill="none" stroke="#000000" stroke-width="0.55" stroke-miterlimit="5" x1="0" y1="7.1" x2="3.8" y2="7.1"/>
		
			<line display="none" fill="none" stroke="#000000" stroke-width="0.55" stroke-miterlimit="5" x1="6.2" y1="7.1" x2="9.9" y2="7.1"/>
		
			<line display="none" fill="none" stroke="#000000" stroke-width="0.55" stroke-miterlimit="5" x1="12.2" y1="7.2" x2="15.9" y2="7.2"/>
		<radialGradient id="XMLID_9_" cx="8.043" cy="7.9932" r="5.6821" fx="8.043" fy="7.9932" gradientUnits="userSpaceOnUse">
			<stop  offset="0" style="stop-color:#FFFFFF"/>
			<stop  offset="1" style="stop-color:#E8B27C"/>
			<a:midPointStop  offset="0" style="stop-color:#FFFFFF"/>
			<a:midPointStop  offset="0.5" style="stop-color:#FFFFFF"/>
			<a:midPointStop  offset="1" style="stop-color:#E8B27C"/>
		</radialGradient>
		<circle display="none" fill="url(#XMLID_9_)" stroke="#000000" stroke-width="0.55" cx="8" cy="8" r="5.7"/> 
		<line display="none" fill="none" stroke="#000000" stroke-width="0.55" x1="2.4" y1="8" x2="0.4" y2="8"/>
		<line display="none" fill="none" stroke="#000000" stroke-width="0.55" x1="0.4" y1="2" x2="0.4" y2="14.2"/>
		<line display="none" fill="none" stroke="#000000" stroke-width="0.55" x1="13.8" y1="8.1" x2="15.7" y2="8.1"/>
		<line display="none" fill="none" stroke="#000000" stroke-width="0.55" x1="15.7" y1="14.2" x2="15.7" y2="2"/>
		
			<line display="none" fill="none" stroke="#000000" stroke-width="0.55" stroke-miterlimit="5" x1="0.3" y1="15.6" x2="15.5" y2="0.4"/>
		<radialGradient id="XMLID_10_" cx="7.9331" cy="7.9629" r="2.7688" fx="7.9331" fy="7.9629" gradientUnits="userSpaceOnUse">
			<stop  offset="0" style="stop-color:#FFFFFF"/>
			<stop  offset="1" style="stop-color:#F5F683"/>
			<a:midPointStop  offset="0" style="stop-color:#FFFFFF"/>
			<a:midPointStop  offset="0.5" style="stop-color:#FFFFFF"/>
			<a:midPointStop  offset="1" style="stop-color:#F5F683"/>
		</radialGradient>
		<rect x="5.2" y="5.2" display="none" fill="url(#XMLID_10_)" stroke="#000000" stroke-width="0.55" width="5.5" height="5.5"/> 
		<path display="none" d="M0.2,4.3v-4h0.5v1.7h2.1V0.3h0.5v4H2.8V2.4H0.7v1.9H0.2z"/>
		<path display="none" d="M4.9,4.3l-1.1-4h0.6L5,2.9c0.1,0.3,0.1,0.5,0.2,0.8C5.3,3.3,5.3,3.1,5.3,3l0.8-2.7h0.6l0.6,2
			c0.1,0.5,0.2,1,0.3,1.4c0.1-0.3,0.1-0.5,0.2-0.9l0.6-2.6H9l-1.1,4H7.4L6.6,1.2C6.5,1,6.4,0.8,6.4,0.8c0,0.2-0.1,0.3-0.1,0.5
			L5.5,4.3H4.9z"/>
		<path display="none" d="M7.2,14.6l0.5,0c0,0.2,0.1,0.4,0.2,0.5c0.1,0.1,0.2,0.2,0.4,0.3c0.2,0.1,0.4,0.1,0.6,0.1
			c0.2,0,0.4,0,0.5-0.1c0.2-0.1,0.3-0.1,0.3-0.2c0.1-0.1,0.1-0.2,0.1-0.3c0-0.1,0-0.2-0.1-0.3c-0.1-0.1-0.2-0.2-0.4-0.2
			c-0.1,0-0.3-0.1-0.7-0.2c-0.4-0.1-0.6-0.2-0.8-0.3c-0.2-0.1-0.3-0.2-0.4-0.4c-0.1-0.2-0.1-0.3-0.1-0.5c0-0.2,0.1-0.4,0.2-0.6
			C7.7,12.2,7.8,12.1,8,12c0.2-0.1,0.5-0.1,0.7-0.1c0.3,0,0.6,0,0.8,0.1s0.4,0.2,0.5,0.4c0.1,0.2,0.2,0.4,0.2,0.6l-0.5,0
			c0-0.3-0.1-0.4-0.3-0.6c-0.2-0.1-0.4-0.2-0.7-0.2c-0.3,0-0.6,0.1-0.7,0.2c-0.1,0.1-0.2,0.3-0.2,0.4c0,0.1,0.1,0.3,0.2,0.4
			c0.1,0.1,0.4,0.2,0.8,0.3c0.4,0.1,0.7,0.2,0.9,0.3c0.2,0.1,0.4,0.2,0.5,0.4c0.1,0.2,0.2,0.4,0.2,0.6c0,0.2-0.1,0.4-0.2,0.6
			c-0.1,0.2-0.3,0.3-0.5,0.4C9.5,15.9,9.2,16,8.9,16c-0.4,0-0.7-0.1-0.9-0.2c-0.2-0.1-0.4-0.3-0.6-0.5C7.3,15.1,7.2,14.9,7.2,14.6z"
			/>
		<path display="none" d="M11.8,15.9l-1.1-4h0.6l0.6,2.6c0.1,0.3,0.1,0.6,0.2,0.8c0.1-0.4,0.2-0.7,0.2-0.7l0.8-2.7h0.6l0.6,2
			c0.1,0.5,0.2,1,0.3,1.4c0.1-0.3,0.1-0.5,0.2-0.9l0.6-2.6H16l-1.1,4h-0.5l-0.8-3.1c-0.1-0.3-0.1-0.4-0.1-0.5c0,0.2-0.1,0.3-0.1,0.5
			l-0.9,3.1H11.8z"/>
		<radialGradient id="XMLID_11_" cx="16.9531" cy="-0.9668" r="18.4161" fx="16.9531" fy="-0.9668" gradientUnits="userSpaceOnUse">
			<stop  offset="0" style="stop-color:#FFFFFF"/>
			<stop  offset="0.2852" style="stop-color:#FBFCFB"/>
			<stop  offset="0.5718" style="stop-color:#EFF4F0"/>
			<stop  offset="0.8583" style="stop-color:#DBE7DD"/>
			<stop  offset="1" style="stop-color:#CEDFD1"/>
			<a:midPointStop  offset="0" style="stop-color:#FFFFFF"/>
			<a:midPointStop  offset="0.7062" style="stop-color:#FFFFFF"/>
			<a:midPointStop  offset="1" style="stop-color:#CEDFD1"/>
		</radialGradient>
		<circle display="none" fill="url(#XMLID_11_)" stroke="#000000" stroke-width="0.55" cx="7.9" cy="8" r="7.6"/> 
		<path display="none" d="M8.1,4.8c-0.4,0-0.7-0.3-0.7-0.7c0-0.4,0.3-0.7,0.7-0.7c0.4,0,0.7,0.3,0.7,0.7C8.9,4.5,8.6,4.8,8.1,4.8
			L8.1,4.8z M7.6,12.2V5.9h1.1v6.2H7.6z"/>
		<line display="none" fill="none" stroke="#000000" stroke-width="0.55" x1="9.8" y1="8" x2="15" y2="8"/>
		<polyline display="none" fill="none" stroke="#000000" stroke-width="0.55" points="12.9,5.6 15,8 12.9,10.5 "/>
		<line display="none" fill="none" stroke="#000000" stroke-width="0.55" x1="6.1" y1="8" x2="0.9" y2="8"/>
		<polyline display="none" fill="none" stroke="#000000" stroke-width="0.55" points="3,10.3 0.9,8 3,5.5 "/>
		<linearGradient id="XMLID_12_" gradientUnits="userSpaceOnUse" x1="2.2656" y1="5.752" x2="13.6895" y2="5.752">
			<stop  offset="0" style="stop-color:#BABABA"/>
			<stop  offset="1" style="stop-color:#FFFFFF"/>
			<a:midPointStop  offset="0" style="stop-color:#BABABA"/>
			<a:midPointStop  offset="0.5" style="stop-color:#BABABA"/>
			<a:midPointStop  offset="1" style="stop-color:#FFFFFF"/>
		</linearGradient>
		<path display="none" fill="url(#XMLID_12_)" stroke="#000000" stroke-width="0.55" d="M2.3,8.6c0-3.2,2.6-5.7,5.7-5.7
			c3.2,0,5.7,2.6,5.7,5.7"/>
		<radialGradient id="XMLID_13_" cx="7.9775" cy="2.8955" r="2.457" fx="7.9775" fy="2.8955" gradientUnits="userSpaceOnUse">
			<stop  offset="0" style="stop-color:#FFFFFF"/>
			<stop  offset="1" style="stop-color:#F5F683"/>
			<a:midPointStop  offset="0" style="stop-color:#FFFFFF"/>
			<a:midPointStop  offset="0.5" style="stop-color:#FFFFFF"/>
			<a:midPointStop  offset="1" style="stop-color:#F5F683"/>
		</radialGradient>
		<rect x="5.5" y="0.4" display="none" fill="url(#XMLID_13_)" stroke="#000000" stroke-width="0.55" width="4.9" height="4.9"/> 
		<line display="none" fill="none" stroke="#000000" stroke-width="0.55" x1="0.2" y1="8.5" x2="15.6" y2="8.5"/>
		<path display="none" d="M2.1,15.2l-1.2-4.5h0.6l0.7,3c0.1,0.3,0.1,0.6,0.2,0.9c0.1-0.5,0.2-0.8,0.2-0.8l0.9-3.1h0.7L4.8,13
			c0.2,0.6,0.3,1.1,0.4,1.6c0.1-0.3,0.1-0.6,0.2-1l0.7-2.9h0.6l-1.2,4.5H4.9l-0.9-3.4c-0.1-0.3-0.1-0.5-0.1-0.5
			c0,0.2-0.1,0.4-0.1,0.5l-0.9,3.4H2.1z"/>
		<path display="none" d="M6.5,15.2l1.7-4.5h0.7l1.8,4.5h-0.7l-0.5-1.4H7.7l-0.5,1.4H6.5z M7.8,13.4h1.5l-0.5-1.2
			c-0.1-0.4-0.2-0.7-0.3-0.9c-0.1,0.3-0.1,0.6-0.2,0.9L7.8,13.4z"/>
		<path display="none" d="M11.2,15.2v-4.5h0.6l2.4,3.6v-3.6h0.6v4.5h-0.6l-2.4-3.6v3.6H11.2z"/>
		<path display="none" d="M1.1,15.2v-4.7H2l1.1,3.3c0.1,0.3,0.2,0.5,0.2,0.7c0.1-0.2,0.1-0.4,0.3-0.8l1.1-3.3h0.8v4.7H5v-3.9
			l-1.4,3.9H3l-1.4-4v4H1.1z"/>
		<path display="none" d="M6.1,15.2l1.8-4.7h0.7l1.9,4.7H9.8l-0.5-1.4h-2l-0.5,1.4H6.1z M7.4,13.3H9L8.5,12c-0.1-0.4-0.3-0.7-0.3-1
			c-0.1,0.3-0.1,0.6-0.3,0.9L7.4,13.3z"/>
		<path display="none" d="M11,15.2v-4.7h0.6l2.5,3.7v-3.7h0.6v4.7H14l-2.5-3.7v3.7H11z"/>
		<path display="none" d="M1.8,15.2v-4.7h0.6v4.2h2.3v0.6H1.8z"/>
		<path display="none" d="M5,15.2l1.8-4.7h0.7l1.9,4.7H8.7l-0.5-1.4h-2l-0.5,1.4H5z M6.4,13.3H8L7.5,12c-0.1-0.4-0.3-0.7-0.3-1
			c-0.1,0.3-0.1,0.6-0.3,0.9L6.4,13.3z"/>
		<path display="none" d="M10,15.2v-4.7h0.7l2.5,3.7v-3.7h0.6v4.7h-0.7l-2.5-3.7v3.7H10z"/>
		
			<linearGradient id="XMLID_14_" gradientUnits="userSpaceOnUse" x1="0.8281" y1="7.7344" x2="15.4766" y2="7.7344" gradientTransform="matrix(-0.5 -0.5 0.5 -0.5 8.2725 16.0381)">
			<stop  offset="0" style="stop-color:#BABABA"/>
			<stop  offset="1" style="stop-color:#FFFFFF"/>
			<a:midPointStop  offset="0" style="stop-color:#BABABA"/>
			<a:midPointStop  offset="0.5" style="stop-color:#BABABA"/>
			<a:midPointStop  offset="1" style="stop-color:#FFFFFF"/>
		</linearGradient>
		<polygon display="none" fill="url(#XMLID_14_)" stroke="#000000" stroke-width="0.55" points="8.1,0.8 15.4,8.1 8.1,15.4 0.7,8.1 
			"/>
		
			<radialGradient id="XMLID_15_" cx="5.8516" cy="9.8535" r="3.5083" fx="5.8516" fy="9.8535" gradientTransform="matrix(1.8565 0 0 1.7601 -3.2632 -8.793)" gradientUnits="userSpaceOnUse">
			<stop  offset="0" style="stop-color:#FFFFFF"/>
			<stop  offset="1" style="stop-color:#F5F683"/>
			<a:midPointStop  offset="0" style="stop-color:#FFFFFF"/>
			<a:midPointStop  offset="0.5" style="stop-color:#FFFFFF"/>
			<a:midPointStop  offset="1" style="stop-color:#F5F683"/>
		</radialGradient>
		<rect x="1.1" y="2.4" display="none" fill="url(#XMLID_15_)" stroke="#000000" stroke-width="0.55" width="13" height="12.4"/> 
		<polyline display="none" fill="none" stroke="#000000" stroke-width="0.7" points="2.6,6.9 7,13 15.6,1.2 "/>
		
			<radialGradient id="XMLID_16_" cx="-289.2788" cy="373.2637" r="1.84" fx="-289.2788" fy="373.2637" gradientTransform="matrix(-0.7071 0.7071 0.7071 0.7071 -459.5039 -52.2288)" gradientUnits="userSpaceOnUse">
			<stop  offset="0" style="stop-color:#FFFFFF"/>
			<stop  offset="1" style="stop-color:#E5A76A"/>
			<a:midPointStop  offset="0" style="stop-color:#FFFFFF"/>
			<a:midPointStop  offset="0.5" style="stop-color:#FFFFFF"/>
			<a:midPointStop  offset="1" style="stop-color:#E5A76A"/>
		</radialGradient>
		<path display="none" fill="url(#XMLID_16_)" stroke="#4D4D4D" stroke-width="0.6" stroke-miterlimit="5" d="M10.8,5.3
			C9.6,6.6,8.3,7.8,7.1,9"/>
		<polyline display="none" fill="none" stroke="#4D4D4D" stroke-width="0.6" stroke-miterlimit="5" points="7.6,5.4 10.8,5.3 
			10.8,8.6 "/>
		<radialGradient id="XMLID_17_" cx="9.5654" cy="4.0234" r="4.0454" fx="9.5654" fy="4.0234" gradientUnits="userSpaceOnUse">
			<stop  offset="0" style="stop-color:#FFFFFF"/>
			<stop  offset="1" style="stop-color:#F5F683"/>
			<a:midPointStop  offset="0" style="stop-color:#FFFFFF"/>
			<a:midPointStop  offset="0.5" style="stop-color:#FFFFFF"/>
			<a:midPointStop  offset="1" style="stop-color:#F5F683"/>
		</radialGradient>
		<polygon display="none" fill="url(#XMLID_17_)" stroke="#000000" stroke-width="0.55" points="11.1,4.1 14.1,7.5 5,7.5 5,0.6 
			14.1,0.6 "/>
		<line display="none" fill="none" stroke="#000000" stroke-width="0.55" x1="5" y1="0.6" x2="5" y2="15.7"/>
		<line display="none" fill="none" stroke="#000000" stroke-width="0.55" x1="1.5" y1="15.7" x2="8.5" y2="15.7"/>
		
			<radialGradient id="XMLID_18_" cx="7.9092" cy="3.79" r="4.8389" fx="7.9092" fy="3.79" gradientTransform="matrix(1.1121 0 0 1 -0.7052 0)" gradientUnits="userSpaceOnUse">
			<stop  offset="0" style="stop-color:#FFFFFF"/>
			<stop  offset="1" style="stop-color:#F5F683"/>
			<a:midPointStop  offset="0" style="stop-color:#FFFFFF"/>
			<a:midPointStop  offset="0.5" style="stop-color:#FFFFFF"/>
			<a:midPointStop  offset="1" style="stop-color:#F5F683"/>
		</radialGradient>
		<polyline display="none" fill="url(#XMLID_18_)" stroke="#000000" stroke-width="0.55" points="14.9,6.8 8.1,0.7 1.3,6.9 "/>
		<polyline display="none" fill="none" stroke="#000000" stroke-width="0.55" points="14.8,3.2 14.9,6.8 10.8,6.8 "/>
		
			<radialGradient id="XMLID_19_" cx="7.9746" cy="12.3223" r="4.8385" fx="7.9746" fy="12.3223" gradientTransform="matrix(1.1121 0 0 1 -0.7052 0)" gradientUnits="userSpaceOnUse">
			<stop  offset="0" style="stop-color:#FFFFFF"/>
			<stop  offset="1" style="stop-color:#F5F683"/>
			<a:midPointStop  offset="0" style="stop-color:#FFFFFF"/>
			<a:midPointStop  offset="0.5" style="stop-color:#FFFFFF"/>
			<a:midPointStop  offset="1" style="stop-color:#F5F683"/>
		</radialGradient>
		<polyline display="none" fill="url(#XMLID_19_)" stroke="#000000" stroke-width="0.55" points="1.4,9.3 8.1,15.4 15,9.2 "/>
		<polyline display="none" fill="none" stroke="#000000" stroke-width="0.55" points="1.5,12.9 1.4,9.3 5.5,9.3 "/>
		<polygon display="none" fill="#003B82" points="6.1,11.3 4.2,8 6.1,4.7 9.9,4.7 11.8,8 9.9,11.3 "/>
		<polyline display="none" fill="none" stroke="#000000" stroke-width="0.6" stroke-miterlimit="5" points="0.8,4.3 3.6,8 0.8,11.9 
			"/>
		<line display="none" fill="none" stroke="#000000" stroke-width="0.6" stroke-miterlimit="5" x1="0" y1="8" x2="3.6" y2="8"/>
		<polyline display="none" fill="none" stroke="#000000" stroke-width="0.6" stroke-miterlimit="5" points="15.2,11.6 12.4,8 
			15.2,4.1 "/>
		<line display="none" fill="none" stroke="#000000" stroke-width="0.6" stroke-miterlimit="5" x1="16" y1="8" x2="12.4" y2="8"/>
		
			<radialGradient id="XMLID_20_" cx="3.7817" cy="10.6953" r="3.4572" fx="3.7817" fy="10.6953" gradientTransform="matrix(0.8981 0 0 1.03 0.8173 -0.5202)" gradientUnits="userSpaceOnUse">
			<stop  offset="0" style="stop-color:#FFFFFF"/>
			<stop  offset="0.2852" style="stop-color:#FBFCFB"/>
			<stop  offset="0.5718" style="stop-color:#EFF4F0"/>
			<stop  offset="0.8583" style="stop-color:#DBE7DD"/>
			<stop  offset="1" style="stop-color:#CEDFD1"/>
			<a:midPointStop  offset="0" style="stop-color:#FFFFFF"/>
			<a:midPointStop  offset="0.7062" style="stop-color:#FFFFFF"/>
			<a:midPointStop  offset="1" style="stop-color:#CEDFD1"/>
		</radialGradient>
		<path display="none" fill="url(#XMLID_20_)" stroke="#000000" stroke-width="0.55" d="M8,10.5C8,11.9,7,13,5.8,13H2.6
			c-1.2,0-2.2-1.1-2.2-2.5l0,0c0-1.4,1-2.5,2.2-2.5h3.2C7,8,8,9.1,8,10.5L8,10.5z"/>
		
			<radialGradient id="XMLID_21_" cx="12.2588" cy="10.6953" r="3.4572" fx="12.2588" fy="10.6953" gradientTransform="matrix(0.8981 0 0 1.03 0.8173 -0.5202)" gradientUnits="userSpaceOnUse">
			<stop  offset="0" style="stop-color:#FFFFFF"/>
			<stop  offset="0.2852" style="stop-color:#FBFCFB"/>
			<stop  offset="0.5718" style="stop-color:#EFF4F0"/>
			<stop  offset="0.8583" style="stop-color:#DBE7DD"/>
			<stop  offset="1" style="stop-color:#CEDFD1"/>
			<a:midPointStop  offset="0" style="stop-color:#FFFFFF"/>
			<a:midPointStop  offset="0.7062" style="stop-color:#FFFFFF"/>
			<a:midPointStop  offset="1" style="stop-color:#CEDFD1"/>
		</radialGradient>
		<path display="none" fill="url(#XMLID_21_)" stroke="#000000" stroke-width="0.55" d="M15.6,10.5c0,1.4-1,2.5-2.2,2.5h-3.2
			C9,13,8,11.9,8,10.5l0,0C8,9.1,9,8,10.2,8h3.2C14.7,8,15.6,9.1,15.6,10.5L15.6,10.5z"/>
		
			<radialGradient id="XMLID_22_" cx="7.8086" cy="5.8218" r="3.4576" fx="7.8086" fy="5.8218" gradientTransform="matrix(0.8981 0 0 1.03 0.8173 -0.5202)" gradientUnits="userSpaceOnUse">
			<stop  offset="0" style="stop-color:#FFFFFF"/>
			<stop  offset="1" style="stop-color:#F5F683"/>
			<a:midPointStop  offset="0" style="stop-color:#FFFFFF"/>
			<a:midPointStop  offset="0.5" style="stop-color:#FFFFFF"/>
			<a:midPointStop  offset="1" style="stop-color:#F5F683"/>
		</radialGradient>
		<path display="none" fill="url(#XMLID_22_)" stroke="#000000" stroke-width="0.55" d="M11.6,5.5c0,1.4-1,2.5-2.2,2.5H6.2
			C5,8,4,6.9,4,5.5l0,0C4,4.1,5,3,6.2,3h3.2C10.7,3,11.6,4.1,11.6,5.5L11.6,5.5z"/>
		<path display="none" stroke="#000000" stroke-width="0.3" d="M3.4,2.7v0.4H3.2c-0.5,0-0.8,0.1-0.9,0.4C2.1,3.7,2.1,4.2,2.1,4.9
			v1.5c0,0.7-0.1,1.2-0.2,1.5C1.8,8.3,1.5,8.5,1.1,8.7c0.4,0.2,0.6,0.4,0.8,0.8C2,9.8,2.1,10.3,2.1,11v1.5c0,0.7,0.1,1.1,0.2,1.4
			c0.2,0.2,0.5,0.4,0.9,0.4h0.2v0.4H3.3c-0.6,0-1.1-0.2-1.3-0.5c-0.2-0.3-0.3-0.9-0.3-1.9v-1.5c0-0.7-0.1-1.1-0.3-1.4
			c-0.2-0.3-0.5-0.4-1-0.4c0,0-0.1,0-0.1,0c0,0-0.1,0-0.1,0V8.5c0.1,0,0.1,0,0.3,0c0.5,0,0.8-0.1,1-0.4c0.2-0.3,0.3-0.8,0.3-1.4V5.1
			c0-0.9,0.1-1.6,0.3-1.9c0.2-0.4,0.6-0.5,1.3-0.5H3.4z"/>
		<path display="none" stroke="#000000" stroke-width="0.3" d="M4.4,8.6c0-1.2,0.3-2.1,1-2.8c0.7-0.7,1.5-1,2.7-1c1.1,0,2,0.3,2.7,1
			c0.7,0.7,1,1.6,1,2.8c0,1.2-0.3,2.1-1,2.8c-0.7,0.7-1.5,1-2.7,1c-1.1,0-2-0.3-2.7-1C4.7,10.8,4.4,9.8,4.4,8.6z M4.8,8.6
			c0,1.1,0.3,2,0.9,2.6C6.2,11.8,7,12.1,8,12.1c1,0,1.8-0.3,2.4-0.9c0.6-0.6,0.9-1.5,0.9-2.6c0-1.1-0.3-2-0.9-2.6
			C9.8,5.4,9,5.1,8,5.1C7,5.1,6.2,5.4,5.6,6C5.1,6.7,4.8,7.5,4.8,8.6z"/>
		<path display="none" stroke="#000000" stroke-width="0.3" d="M12.7,2.7h0.2c0.6,0,1.1,0.2,1.3,0.5c0.2,0.3,0.3,1,0.3,1.9v1.5
			c0,0.7,0.1,1.1,0.3,1.4c0.2,0.3,0.5,0.4,1,0.4c0.1,0,0.2,0,0.3,0v0.5c0,0-0.1,0-0.1,0c-0.1,0-0.1,0-0.1,0c-0.5,0-0.8,0.1-1,0.4
			c-0.2,0.3-0.3,0.8-0.3,1.4v1.5c0,0.9-0.1,1.5-0.3,1.9c-0.2,0.4-0.7,0.5-1.3,0.5h-0.2v-0.4h0.2c0.5,0,0.8-0.1,0.9-0.4
			c0.1-0.2,0.2-0.7,0.2-1.4V11c0-0.7,0.1-1.2,0.2-1.5c0.1-0.4,0.4-0.6,0.8-0.8c-0.4-0.2-0.6-0.4-0.8-0.8C14.1,7.6,14,7.1,14,6.4V4.9
			c0-0.7-0.1-1.1-0.2-1.4c-0.1-0.2-0.5-0.4-0.9-0.4h-0.2V2.7z"/>
		<path display="none" d="M13.4,0.8h-1.7V0.3h4.1v0.5h-1.7v4.3h-0.7V0.8z"/>
		
			<radialGradient id="XMLID_23_" cx="4.4277" cy="11.8652" r="4.6547" fx="4.4277" fy="11.8652" gradientTransform="matrix(1 0 0 0.6344 0 0.8062)" gradientUnits="userSpaceOnUse">
			<stop  offset="0" style="stop-color:#FFFFFF"/>
			<stop  offset="1" style="stop-color:#E5A76A"/>
			<a:midPointStop  offset="0" style="stop-color:#FFFFFF"/>
			<a:midPointStop  offset="0.5" style="stop-color:#FFFFFF"/>
			<a:midPointStop  offset="1" style="stop-color:#E5A76A"/>
		</radialGradient>
		<polygon display="none" fill="url(#XMLID_23_)" stroke="#000000" stroke-width="0.55" points="8.4,11.7 0.5,11.7 2.9,5 5.9,5 "/>
		<radialGradient id="XMLID_24_" cx="4.4292" cy="3.2656" r="2.9165" fx="4.4292" fy="3.2656" gradientUnits="userSpaceOnUse">
			<stop  offset="0" style="stop-color:#FFFFFF"/>
			<stop  offset="1" style="stop-color:#F5F683"/>
			<a:midPointStop  offset="0" style="stop-color:#FFFFFF"/>
			<a:midPointStop  offset="0.5" style="stop-color:#FFFFFF"/>
			<a:midPointStop  offset="1" style="stop-color:#F5F683"/>
		</radialGradient>
		<circle display="none" fill="url(#XMLID_24_)" stroke="#000000" stroke-width="0.55" cx="4.4" cy="3.3" r="2.9"/> 
		
			<radialGradient id="XMLID_25_" cx="7.2314" cy="14.9287" r="4.6539" fx="7.2314" fy="14.9287" gradientTransform="matrix(1 0 0 0.6344 0 0.8062)" gradientUnits="userSpaceOnUse">
			<stop  offset="0" style="stop-color:#FFFFFF"/>
			<stop  offset="1" style="stop-color:#E5A76A"/>
			<a:midPointStop  offset="0" style="stop-color:#FFFFFF"/>
			<a:midPointStop  offset="0.5" style="stop-color:#FFFFFF"/>
			<a:midPointStop  offset="1" style="stop-color:#E5A76A"/>
		</radialGradient>
		<polygon display="none" fill="url(#XMLID_25_)" stroke="#000000" stroke-width="0.55" points="11.2,13.6 3.3,13.6 5.7,6.9 
			8.7,6.9 "/>
		<radialGradient id="XMLID_26_" cx="7.2324" cy="5.21" r="2.9163" fx="7.2324" fy="5.21" gradientUnits="userSpaceOnUse">
			<stop  offset="0" style="stop-color:#FFFFFF"/>
			<stop  offset="1" style="stop-color:#F5F683"/>
			<a:midPointStop  offset="0" style="stop-color:#FFFFFF"/>
			<a:midPointStop  offset="0.5" style="stop-color:#FFFFFF"/>
			<a:midPointStop  offset="1" style="stop-color:#F5F683"/>
		</radialGradient>
		<circle display="none" fill="url(#XMLID_26_)" stroke="#000000" stroke-width="0.55" cx="7.2" cy="5.2" r="2.9"/> 
		
			<radialGradient id="XMLID_27_" cx="10.0352" cy="17.9932" r="4.6539" fx="10.0352" fy="17.9932" gradientTransform="matrix(1 0 0 0.6344 0 0.8062)" gradientUnits="userSpaceOnUse">
			<stop  offset="0" style="stop-color:#FFFFFF"/>
			<stop  offset="1" style="stop-color:#E5A76A"/>
			<a:midPointStop  offset="0" style="stop-color:#FFFFFF"/>
			<a:midPointStop  offset="0.5" style="stop-color:#FFFFFF"/>
			<a:midPointStop  offset="1" style="stop-color:#E5A76A"/>
		</radialGradient>
		<polygon display="none" fill="url(#XMLID_27_)" stroke="#000000" stroke-width="0.55" points="14,15.6 6.1,15.6 8.5,8.9 11.6,8.9 
			"/>
		<radialGradient id="XMLID_28_" cx="10.0361" cy="7.1538" r="2.9163" fx="10.0361" fy="7.1538" gradientUnits="userSpaceOnUse">
			<stop  offset="0" style="stop-color:#FFFFFF"/>
			<stop  offset="1" style="stop-color:#F5F683"/>
			<a:midPointStop  offset="0" style="stop-color:#FFFFFF"/>
			<a:midPointStop  offset="0.5" style="stop-color:#FFFFFF"/>
			<a:midPointStop  offset="1" style="stop-color:#F5F683"/>
		</radialGradient>
		<circle display="none" fill="url(#XMLID_28_)" stroke="#000000" stroke-width="0.55" cx="10" cy="7.2" r="2.9"/> 
		
			<radialGradient id="XMLID_29_" cx="7.7441" cy="7.2183" r="4.8813" fx="7.7441" fy="7.2183" gradientTransform="matrix(1.1017 0 0 3.4458 -0.5989 -16.8481)" gradientUnits="userSpaceOnUse">
			<stop  offset="0" style="stop-color:#FFFFFF"/>
			<stop  offset="1" style="stop-color:#F5F683"/>
			<a:midPointStop  offset="0" style="stop-color:#FFFFFF"/>
			<a:midPointStop  offset="0.5" style="stop-color:#FFFFFF"/>
			<a:midPointStop  offset="1" style="stop-color:#F5F683"/>
		</radialGradient>
		<rect x="0.4" y="4.2" display="none" fill="url(#XMLID_29_)" stroke="#000000" stroke-width="0.55" width="15" height="7.6"/> 
		<line display="none" fill="none" stroke="#000000" stroke-width="0.55" x1="7.9" y1="9" x2="7.9" y2="4.2"/>
		<line display="none" fill="none" stroke="#000000" stroke-width="0.55" x1="2.8" y1="6.9" x2="2.8" y2="4.2"/>
		<line display="none" fill="none" stroke="#000000" stroke-width="0.55" x1="5.3" y1="6.9" x2="5.3" y2="4.2"/>
		<line display="none" fill="none" stroke="#000000" stroke-width="0.55" x1="10.3" y1="6.9" x2="10.3" y2="4.2"/>
		<line display="none" fill="none" stroke="#000000" stroke-width="0.55" x1="12.8" y1="6.9" x2="12.8" y2="4.2"/>
		
			<radialGradient id="XMLID_30_" cx="8.8721" cy="6.5801" r="4.5252" fx="8.8721" fy="6.5801" gradientTransform="matrix(1.0365 0 0 2.7387 -1.502323e-002 -14.4043)" gradientUnits="userSpaceOnUse">
			<stop  offset="0" style="stop-color:#FFFFFF"/>
			<stop  offset="0.2852" style="stop-color:#FBFCFB"/>
			<stop  offset="0.5718" style="stop-color:#EFF4F0"/>
			<stop  offset="0.8583" style="stop-color:#DBE7DD"/>
			<stop  offset="1" style="stop-color:#CEDFD1"/>
			<a:midPointStop  offset="0" style="stop-color:#FFFFFF"/>
			<a:midPointStop  offset="0.7062" style="stop-color:#FFFFFF"/>
			<a:midPointStop  offset="1" style="stop-color:#CEDFD1"/>
		</radialGradient>
		<rect x="2.6" y="0.8" display="none" fill="url(#XMLID_30_)" stroke="#000000" stroke-width="0.55" width="13.1" height="5.6"/> 
		<line display="none" fill="none" stroke="#000000" stroke-width="0.55" x1="9.2" y1="4.7" x2="9.2" y2="0.8"/>
		<line display="none" fill="none" stroke="#000000" stroke-width="0.55" x1="4.7" y1="3" x2="4.7" y2="0.8"/>
		<line display="none" fill="none" stroke="#000000" stroke-width="0.55" x1="6.9" y1="3" x2="6.9" y2="0.8"/>
		<line display="none" fill="none" stroke="#000000" stroke-width="0.55" x1="11.2" y1="3" x2="11.2" y2="0.8"/>
		<line display="none" fill="none" stroke="#000000" stroke-width="0.55" x1="13.4" y1="3" x2="13.4" y2="0.8"/>
		
			<radialGradient id="XMLID_31_" cx="7.7461" cy="8.1982" r="4.5259" fx="7.7461" fy="8.1982" gradientTransform="matrix(1.0365 0 0 2.7387 -1.502323e-002 -14.4043)" gradientUnits="userSpaceOnUse">
			<stop  offset="0" style="stop-color:#FFFFFF"/>
			<stop  offset="0.2852" style="stop-color:#FBFCFB"/>
			<stop  offset="0.5718" style="stop-color:#EFF4F0"/>
			<stop  offset="0.8583" style="stop-color:#DBE7DD"/>
			<stop  offset="1" style="stop-color:#CEDFD1"/>
			<a:midPointStop  offset="0" style="stop-color:#FFFFFF"/>
			<a:midPointStop  offset="0.7062" style="stop-color:#FFFFFF"/>
			<a:midPointStop  offset="1" style="stop-color:#CEDFD1"/>
		</radialGradient>
		<rect x="1.5" y="5.2" display="none" fill="url(#XMLID_31_)" stroke="#000000" stroke-width="0.55" width="13.1" height="5.6"/> 
		<line display="none" fill="none" stroke="#000000" stroke-width="0.55" x1="8" y1="9.1" x2="8" y2="5.2"/>
		<line display="none" fill="none" stroke="#000000" stroke-width="0.55" x1="3.5" y1="7.4" x2="3.5" y2="5.2"/>
		<line display="none" fill="none" stroke="#000000" stroke-width="0.55" x1="5.7" y1="7.4" x2="5.7" y2="5.2"/>
		<line display="none" fill="none" stroke="#000000" stroke-width="0.55" x1="10.1" y1="7.4" x2="10.1" y2="5.2"/>
		<line display="none" fill="none" stroke="#000000" stroke-width="0.55" x1="12.2" y1="7.4" x2="12.2" y2="5.2"/>
		
			<radialGradient id="XMLID_32_" cx="6.6211" cy="9.8184" r="4.5257" fx="6.6211" fy="9.8184" gradientTransform="matrix(1.0365 0 0 2.7387 -1.502323e-002 -14.4043)" gradientUnits="userSpaceOnUse">
			<stop  offset="0" style="stop-color:#FFFFFF"/>
			<stop  offset="0.2852" style="stop-color:#FBFCFB"/>
			<stop  offset="0.5718" style="stop-color:#EFF4F0"/>
			<stop  offset="0.8583" style="stop-color:#DBE7DD"/>
			<stop  offset="1" style="stop-color:#CEDFD1"/>
			<a:midPointStop  offset="0" style="stop-color:#FFFFFF"/>
			<a:midPointStop  offset="0.7062" style="stop-color:#FFFFFF"/>
			<a:midPointStop  offset="1" style="stop-color:#CEDFD1"/>
		</radialGradient>
		<rect x="0.3" y="9.7" display="none" fill="url(#XMLID_32_)" stroke="#000000" stroke-width="0.55" width="13.1" height="5.6"/> 
		<line display="none" fill="none" stroke="#000000" stroke-width="0.55" x1="6.8" y1="13.6" x2="6.8" y2="9.7"/>
		<line display="none" fill="none" stroke="#000000" stroke-width="0.55" x1="2.4" y1="11.9" x2="2.4" y2="9.7"/>
		<line display="none" fill="none" stroke="#000000" stroke-width="0.55" x1="4.5" y1="11.9" x2="4.5" y2="9.7"/>
		<line display="none" fill="none" stroke="#000000" stroke-width="0.55" x1="8.9" y1="11.9" x2="8.9" y2="9.7"/>
		<line display="none" fill="none" stroke="#000000" stroke-width="0.55" x1="11.1" y1="11.9" x2="11.1" y2="9.7"/>
		
			<radialGradient id="XMLID_33_" cx="18.7832" cy="21.3711" r="1.7629" fx="18.7832" fy="21.3711" gradientTransform="matrix(-1.0971 0 0 -1.0683 24.5751 37.2065)" gradientUnits="userSpaceOnUse">
			<stop  offset="0" style="stop-color:#FFFFFF"/>
			<stop  offset="1" style="stop-color:#E5A76A"/>
			<a:midPointStop  offset="0" style="stop-color:#FFFFFF"/>
			<a:midPointStop  offset="0.5" style="stop-color:#FFFFFF"/>
			<a:midPointStop  offset="1" style="stop-color:#E5A76A"/>
		</radialGradient>
		<path display="none" fill="url(#XMLID_33_)" stroke="#000000" stroke-width="0.55" stroke-miterlimit="5" d="M6.7,14.4
			c-1.8,0-3.6,0-5.5,0"/>
		
			<radialGradient id="XMLID_34_" cx="14.9824" cy="24.9697" r="1.7622" fx="14.9824" fy="24.9697" gradientTransform="matrix(-1.9325 0 0 -1.0683 35.0732 37.2065)" gradientUnits="userSpaceOnUse">
			<stop  offset="0" style="stop-color:#FFFFFF"/>
			<stop  offset="1" style="stop-color:#E5A76A"/>
			<a:midPointStop  offset="0" style="stop-color:#FFFFFF"/>
			<a:midPointStop  offset="0.5" style="stop-color:#FFFFFF"/>
			<a:midPointStop  offset="1" style="stop-color:#E5A76A"/>
		</radialGradient>
		<path display="none" fill="url(#XMLID_34_)" stroke="#000000" stroke-width="0.55" stroke-miterlimit="5" d="M10.9,10.5
			c-3.2,0-6.4,0-9.6,0"/>
		<path display="none" fill="none" stroke="#000000" stroke-width="0.55" stroke-miterlimit="5" d="M15.1,6.6c-4.6,0-9.2,0-13.9,0v8
			"/>
		<path display="none" d="M1.2,5l2-2L1.4,1.2h0.8l1,1c0.2,0.2,0.3,0.4,0.4,0.5C3.7,2.5,3.8,2.4,4,2.2l1-1h0.8L4,3l1.9,2H5.1L3.8,3.7
			C3.7,3.6,3.6,3.5,3.5,3.4C3.4,3.6,3.4,3.7,3.3,3.7L2,5H1.2z"/>
		<path display="none" fill="#5B7EE3" d="M8,5V3.4L6,1.2h0.8l1,1.2C8,2.6,8.2,2.8,8.4,3C8.5,2.8,8.7,2.6,9,2.3l1-1.1h0.8L8.7,3.4V5
			H8z"/>
		<path display="none" fill="#B50000" d="M11,5V4.6l2.7-2.5c0.2-0.2,0.4-0.3,0.5-0.5h-2.9V1.2H15v0.5l-2.9,2.7l-0.3,0.3h3.3V5H11z"
			/>
		<path display="none" d="M10.9,15.7l1.9-2.2l-1.7-2h0.8l0.9,1.1c0.2,0.2,0.3,0.4,0.4,0.5c0.1-0.2,0.2-0.3,0.4-0.5l1-1.1h0.7l-1.7,2
			l1.8,2.2h-0.8l-1.2-1.5c-0.1-0.1-0.1-0.2-0.2-0.3c-0.1,0.1-0.2,0.2-0.2,0.3l-1.2,1.5H10.9z"/>
		<polyline display="none" fill="none" stroke="#003B82" stroke-width="0.9" stroke-miterlimit="5" points="6.4,1.1 12.4,1 
			12.4,5.2 "/>
		<polyline display="none" fill="none" stroke="#003B82" stroke-miterlimit="5" points="12.4,1 2.7,8.7 12.9,8.7 4.4,15.6 "/>
	</g>
</svg>
