<svg xmlns="http://www.w3.org/2000/svg" viewBox="0 0 587 484" width="20" height="20">
	<defs>
		<linearGradient id="grd1" gradientUnits="userSpaceOnUse"  x1="103.444" y1="181.09" x2="457.674" y2="564.789">
			<stop offset="0" stop-color="#f2b600"  />
			<stop offset="1" stop-color="#f29600"  />
		</linearGradient>
		<linearGradient id="grd2" gradientUnits="userSpaceOnUse"  x1="488.54" y1="496.029" x2="146.776" y2="231.644">
			<stop offset="0" stop-color="#d88500"  />
			<stop offset="1" stop-color="#ffcc33"  />
		</linearGradient>
		<linearGradient id="grd3" gradientUnits="userSpaceOnUse"  x1="168.374" y1="404.901" x2="562.338" y2="146.4">
			<stop offset="0" stop-color="#ffd657"  />
			<stop offset="1" stop-color="#f2b600"  />
		</linearGradient>
		<linearGradient id="grd4" gradientUnits="userSpaceOnUse"  x1="199.85" y1="139.147" x2="355.078" y2="295.632">
			<stop offset="0" stop-color="#fff1c5"  />
			<stop offset="1" stop-color="#ffcc33"  />
		</linearGradient>
		<radialGradient id="grd5" gradientUnits="userSpaceOnUse"  cx="288.632" cy="198.455" r="274.944">
			<stop offset="0" stop-color="#ffffff"  />
			<stop offset="0.5" stop-color="#ffffff"  />
			<stop offset="1" stop-color="#d5d5d5"  />
		</radialGradient>
	</defs>
	<style>
		tspan { white-space:pre }
		.shp0 { opacity: 0.18;fill: #000000 } 
		.shp1 { fill: url(#grd1) } 
		.shp2 { fill: url(#grd2) } 
		.shp3 { fill: none;stroke: url(#grd3);stroke-linejoin:round;stroke-width: 11.52 } 
		.shp4 { fill: url(#grd4) } 
		.shp5 { fill: url(#grd5) } 
		.shp6 { fill: #000000 } 
		.shp7 { fill: #000002 } 
	</style>
	<path id="path2935" class="shp0" d="M276.04 21.68L15.88 448.89C10.89 457.05 10.89 467.13 15.88 475.29C20.78 483.35 29.99 488.44 39.98 488.44L560.3 488.44C570.19 488.44 579.41 483.35 584.4 475.29C589.29 467.13 589.29 457.05 584.4 448.89L324.24 21.68C319.25 13.52 310.03 8.44 300.14 8.44C290.25 8.44 281.04 13.52 276.04 21.68Z" />
	<path id="path2937" class="shp1" d="M264.59 14.04L4.43 441.24C-0.57 449.4 -0.57 459.48 4.43 467.64C9.32 475.7 18.54 480.79 28.52 480.79L548.84 480.79C558.73 480.79 567.95 475.7 572.94 467.64C577.84 459.48 577.84 449.4 572.94 441.24L312.78 14.04C307.79 5.88 298.57 0.79 288.68 0.79C278.79 0.79 269.58 5.88 264.59 14.04Z" />
	<path id="path2939" class="shp2" d="M288.68 22.77C287.05 22.77 285.51 23.63 284.65 24.98L154.57 238.58L24.49 452.18C23.63 453.53 23.63 455.25 24.49 456.6C25.35 457.94 26.89 458.81 28.52 458.81L548.84 458.81C550.48 458.81 552.01 457.94 552.87 456.6C553.74 455.25 553.74 453.53 552.87 452.18L292.71 24.98C291.85 23.63 290.31 22.77 288.68 22.77Z" />
	<path id="path2941" class="shp3" d="M288.65 22.77C287.01 22.77 285.48 23.63 284.62 24.98L154.53 238.58L24.45 452.18C23.59 453.53 23.59 455.25 24.45 456.6C25.32 457.94 26.85 458.81 28.48 458.81L548.81 458.81C550.44 458.81 551.98 457.94 552.84 456.6C553.7 455.25 553.7 453.53 552.84 452.18L292.68 24.98C291.81 23.63 290.28 22.77 288.65 22.77Z" />
	<path id="path2943" class="shp4" d="M288.75 30.47C287.2 30.54 285.76 31.4 284.94 32.69L154.86 246.29L136.74 276.05C180.88 302.54 232.51 317.81 287.7 317.81C343.67 317.81 396.01 302.13 440.55 274.94L293.01 32.69C292.15 31.34 290.62 30.47 288.99 30.47C288.91 30.47 288.83 30.46 288.75 30.47Z" />
	<path id="path2945" class="shp5" d="M275.44 136.72L118.28 394.68C115.59 399.19 115.59 404.76 118.28 409.17C120.97 413.69 126.06 416.47 131.53 416.47L445.74 416.47C451.21 416.47 456.3 413.69 458.99 409.17C461.67 404.66 461.67 399.19 458.99 394.68L301.93 136.72C299.24 132.21 294.16 129.43 288.68 129.43C283.21 129.43 278.12 132.21 275.44 136.72Z" />
	<g id="g2689">
		<path id="path633" class="shp6" d="M448.38 403.23L276.58 403.45C275.03 403.31 273.9 402.95 274.49 401.09L337.62 320.18C339.8 317.08 343.09 315.41 346.41 315.5L378.13 315.44C383.27 315.43 385.26 316.92 388.09 320.48L449.9 400.3C450.47 401.7 449.96 403.11 448.38 403.23Z" />
		<path id="rect613" class="shp7" d="M266.3 229.81L290.91 242.73C294.74 244.74 296.34 249.75 294.48 253.91L265.64 318.44C263.77 322.61 259.16 324.36 255.32 322.35L230.72 309.43C226.88 307.42 225.29 302.41 227.15 298.24L255.99 233.71C257.85 229.55 262.47 227.8 266.3 229.81Z" />
		<path id="rect615" class="shp6" d="M228.52 227.99L285.3 227.99C288.93 227.99 291.88 230.5 291.88 233.59L291.88 245.13C291.88 248.22 288.93 250.72 285.3 250.72L228.52 250.72C224.88 250.72 221.94 248.22 221.94 245.13L221.94 233.59C221.94 230.5 224.88 227.99 228.52 227.99Z" />
		<path id="rect616" class="shp6" d="M197.2 278.39L222 231.65C223.59 228.65 226.46 227.65 228.42 229.4L235.73 235.96C237.68 237.71 237.98 241.56 236.39 244.55L211.59 291.29C210.01 294.29 207.13 295.29 205.18 293.54L197.87 286.99C195.91 285.23 195.61 281.38 197.2 278.39Z" />
		<path id="rect617" class="shp6" d="M219.73 283.27L366.66 360.73C376.07 365.69 383.17 370.79 382.53 372.12L380.12 377.07C379.48 378.4 371.33 375.45 361.92 370.49L214.99 293.03C205.59 288.07 198.48 282.97 199.12 281.64L201.53 276.69C202.17 275.36 210.32 278.31 219.73 283.27Z" />
		<path id="rect618" class="shp6" d="M286.45 320.64L282.07 244.14C281.79 239.24 283.64 235.11 286.2 234.91L295.77 234.17C298.33 233.97 300.64 237.78 300.92 242.68L305.3 319.18C305.58 324.08 303.73 328.21 301.17 328.41L291.6 329.15C289.04 329.35 286.73 325.54 286.45 320.64Z" />
		<path id="path619" class="shp6" d="M305.31 239.61C293.73 239.61 284.38 229.73 284.38 217.5C284.38 205.27 293.73 195.39 305.31 195.39C316.88 195.39 326.24 205.27 326.24 217.5C326.24 229.73 316.88 239.61 305.31 239.61Z" />
		<path id="rect621" class="shp6" d="M249.61 355.19L239.24 312.1C238.57 309.34 240.41 306.69 243.34 306.19L254.27 304.32C257.2 303.82 260.11 305.65 260.77 308.41L271.14 351.5C271.81 354.26 269.97 356.91 267.05 357.41L256.11 359.28C253.18 359.78 250.27 357.95 249.61 355.19Z" />
		<path id="rect622" class="shp6" d="M249.92 396.88L249.59 352.46C249.56 349.62 251.95 347.5 254.91 347.72L265.97 348.58C268.94 348.81 271.36 351.3 271.38 354.14L271.71 398.57C271.73 401.41 269.35 403.53 266.39 403.3L255.33 402.45C252.36 402.22 249.95 399.73 249.92 396.88Z" />
		<path id="rect623" class="shp6" d="M180.72 382.31L224.73 304.99C227.55 300.03 231.85 297.44 234.34 299.19L243.62 305.72C246.1 307.46 245.83 312.9 243.01 317.85L198.99 395.17C196.18 400.12 191.88 402.72 189.39 400.97L180.11 394.44C177.63 392.7 177.9 387.26 180.72 382.31Z" />
	</g>
</svg>